0
SECTION
2
HEADER
9
$INSUNITS
70
4
9
$ACADVER
1
AC1014
9
$HANDSEED
5
FFFF
0
ENDSEC
0
SECTION
2
TABLES
0
TABLE
2
VPORT
5
8
100
AcDbSymbolTable
0
ENDTAB
0
TABLE
2
LTYPE
5
5
100
AcDbSymbolTable
0
LTYPE
5
14
100
AcDbSymbolTableRecord
100
AcDbLinetypeTableRecord
2
BYBLOCK
70
0
0
LTYPE
5
15
100
AcDbSymbolTableRecord
100
AcDbLinetypeTableRecord
2
BYLAYER
70
0
0
LTYPE
5
16
100
AcDbSymbolTableRecord
100
AcDbLinetypeTableRecord
2
DASHED
70
0
3
Dashed __ __ __ __ __ __ __ __ __ __ __ __ __ _
72
65
73
2
40
0.75
49
0.5
74
0
49
-0.25
74
0
0
ENDTAB
0
TABLE
2
LAYER
5
2
100
AcDbSymbolTable
70
3
0
LAYER
5
50
100
AcDbSymbolTableRecord
100
AcDbLayerTableRecord
2
1
70
0
62
7
6
DASHED
0
LAYER
5
51
100
AcDbSymbolTableRecord
100
AcDbLayerTableRecord
2
0
70
0
62
7
6
CONTINUOUS
0
ENDTAB
0
TABLE
2
STYLE
5
3
100
AcDbSymbolTable
70
1
0
STYLE
5
11
100
AcDbSymbolTableRecord
100
AcDbTextStyleTableRecord
2
STANDARD
70
0
0
ENDTAB
0
TABLE
2
VIEW
5
6
100
AcDbSymbolTable
70
0
0
ENDTAB
0
TABLE
2
UCS
5
7
100
AcDbSymbolTable
70
0
0
ENDTAB
0
TABLE
2
APPID
5
9
100
AcDbSymbolTable
70
2
0
APPID
5
12
100
AcDbSymbolTableRecord
100
AcDbRegAppTableRecord
2
ACAD
70
0
0
ENDTAB
0
TABLE
2
DIMSTYLE
5
A
100
AcDbSymbolTable
70
1
0
ENDTAB
0
TABLE
2
BLOCK_RECORD
5
1
100
AcDbSymbolTable
70
1
0
BLOCK_RECORD
5
1F
100
AcDbSymbolTableRecord
100
AcDbBlockTableRecord
2
*MODEL_SPACE
0
BLOCK_RECORD
5
1B
100
AcDbSymbolTableRecord
100
AcDbBlockTableRecord
2
*PAPER_SPACE
0
ENDTAB
0
ENDSEC
0
SECTION
2
BLOCKS
0
BLOCK
5
20
100
AcDbEntity
100
AcDbBlockBegin
2
*MODEL_SPACE
0
ENDBLK
5
21
100
AcDbEntity
100
AcDbBlockEnd
0
BLOCK
5
1C
100
AcDbEntity
100
AcDbBlockBegin
2
*PAPER_SPACE
0
ENDBLK
5
1D
100
AcDbEntity
100
AcDbBlockEnd
0
ENDSEC
0
SECTION
2
ENTITIES
0
POINT
5
100
100
AcDbEntity
8
0
100
AcDbPoint
10
0
20
0
30
0
0
POINT
5
101
100
AcDbEntity
8
0
100
AcDbPoint
10
2
20
0
30
0
0
SPLINE
5
102
100
AcDbEntity
8
0
100
AcDbSpline
70
6
71
5
72
341
73
335
74
0
42
0.000000001
43
0.0000000001
44
0.0000000001
40
0
40
0
40
0
40
0
40
0
40
0
40
0.0030303030303030303
40
0.0060606060606060606
40
0.0090909090909090905
40
0.012121212121212121
40
0.015151515151515152
40
0.018181818181818181
40
0.02121212121212121
40
0.024242424242424239
40
0.027272727272727268
40
0.030303030303030297
40
0.033333333333333326
40
0.036363636363636355
40
0.039393939393939384
40
0.042424242424242413
40
0.045454545454545442
40
0.048484848484848471
40
0.0515151515151515
40
0.054545454545454529
40
0.057575757575757558
40
0.060606060606060587
40
0.063636363636363616
40
0.066666666666666652
40
0.069696969696969688
40
0.072727272727272724
40
0.07575757575757576
40
0.078787878787878796
40
0.081818181818181832
40
0.084848484848484867
40
0.087878787878787903
40
0.090909090909090939
40
0.093939393939393975
40
0.096969696969697011
40
0.10000000000000005
40
0.10303030303030308
40
0.10606060606060612
40
0.10909090909090915
40
0.11212121212121219
40
0.11515151515151523
40
0.11818181818181826
40
0.1212121212121213
40
0.12424242424242433
40
0.12727272727272737
40
0.13030303030303039
40
0.13333333333333341
40
0.13636363636363644
40
0.13939393939393946
40
0.14242424242424248
40
0.1454545454545455
40
0.14848484848484853
40
0.15151515151515155
40
0.15454545454545457
40
0.15757575757575759
40
0.16060606060606061
40
0.16363636363636364
40
0.16666666666666666
40
0.16969696969696968
40
0.1727272727272727
40
0.17575757575757572
40
0.17878787878787875
40
0.18181818181818177
40
0.18484848484848479
40
0.18787878787878781
40
0.19090909090909083
40
0.19393939393939386
40
0.19696969696969688
40
0.1999999999999999
40
0.20303030303030292
40
0.20606060606060594
40
0.20909090909090897
40
0.21212121212121199
40
0.21515151515151501
40
0.21818181818181803
40
0.22121212121212105
40
0.22424242424242408
40
0.2272727272727271
40
0.23030303030303012
40
0.23333333333333314
40
0.23636363636363616
40
0.23939393939393919
40
0.24242424242424221
40
0.24545454545454523
40
0.24848484848484825
40
0.2515151515151513
40
0.25454545454545435
40
0.2575757575757574
40
0.26060606060606045
40
0.2636363636363635
40
0.26666666666666655
40
0.2696969696969696
40
0.27272727272727265
40
0.2757575757575757
40
0.27878787878787875
40
0.2818181818181818
40
0.28484848484848485
40
0.2878787878787879
40
0.29090909090909095
40
0.293939393939394
40
0.29696969696969705
40
0.3000000000000001
40
0.30303030303030315
40
0.3060606060606062
40
0.30909090909090925
40
0.3121212121212123
40
0.31515151515151535
40
0.3181818181818184
40
0.32121212121212145
40
0.3242424242424245
40
0.32727272727272755
40
0.3303030303030306
40
0.33333333333333365
40
0.3363636363636367
40
0.33939393939393975
40
0.3424242424242428
40
0.34545454545454585
40
0.3484848484848489
40
0.35151515151515195
40
0.354545454545455
40
0.35757575757575805
40
0.3606060606060611
40
0.36363636363636415
40
0.3666666666666672
40
0.36969696969697025
40
0.3727272727272733
40
0.37575757575757635
40
0.3787878787878794
40
0.38181818181818244
40
0.38484848484848549
40
0.38787878787878854
40
0.39090909090909159
40
0.39393939393939464
40
0.39696969696969769
40
0.40000000000000074
40
0.40303030303030379
40
0.40606060606060684
40
0.40909090909090989
40
0.41212121212121294
40
0.41515151515151599
40
0.41818181818181904
40
0.42121212121212209
40
0.42424242424242514
40
0.42727272727272819
40
0.43030303030303124
40
0.43333333333333429
40
0.43636363636363734
40
0.43939393939394039
40
0.44242424242424344
40
0.44545454545454649
40
0.44848484848484954
40
0.45151515151515259
40
0.45454545454545564
40
0.45757575757575869
40
0.46060606060606174
40
0.46363636363636479
40
0.46666666666666784
40
0.46969696969697089
40
0.47272727272727394
40
0.47575757575757699
40
0.47878787878788004
40
0.48181818181818309
40
0.48484848484848614
40
0.48787878787878919
40
0.49090909090909224
40
0.49393939393939529
40
0.49696969696969834
40
0.50000000000000133
40
0.50303030303030438
40
0.50606060606060743
40
0.50909090909091048
40
0.51212121212121353
40
0.51515151515151658
40
0.51818181818181963
40
0.52121212121212268
40
0.52424242424242573
40
0.52727272727272878
40
0.53030303030303183
40
0.53333333333333488
40
0.53636363636363793
40
0.53939393939394098
40
0.54242424242424403
40
0.54545454545454708
40
0.54848484848485013
40
0.55151515151515318
40
0.55454545454545623
40
0.55757575757575928
40
0.56060606060606233
40
0.56363636363636538
40
0.56666666666666843
40
0.56969696969697148
40
0.57272727272727453
40
0.57575757575757758
40
0.57878787878788063
40
0.58181818181818368
40
0.58484848484848673
40
0.58787878787878978
40
0.59090909090909283
40
0.59393939393939588
40
0.59696969696969893
40
0.60000000000000198
40
0.60303030303030503
40
0.60606060606060808
40
0.60909090909091113
40
0.61212121212121418
40
0.61515151515151723
40
0.61818181818182028
40
0.62121212121212332
40
0.62424242424242637
40
0.62727272727272942
40
0.63030303030303247
40
0.63333333333333552
40
0.63636363636363857
40
0.63939393939394162
40
0.64242424242424467
40
0.64545454545454772
40
0.64848484848485077
40
0.65151515151515382
40
0.65454545454545687
40
0.65757575757575992
40
0.66060606060606297
40
0.66363636363636602
40
0.66666666666666907
40
0.66969696969697212
40
0.67272727272727517
40
0.67575757575757822
40
0.67878787878788127
40
0.68181818181818432
40
0.68484848484848737
40
0.68787878787879042
40
0.69090909090909347
40
0.69393939393939652
40
0.69696969696969957
40
0.70000000000000262
40
0.70303030303030567
40
0.70606060606060872
40
0.70909090909091177
40
0.71212121212121482
40
0.71515151515151787
40
0.71818181818182092
40
0.72121212121212397
40
0.72424242424242702
40
0.72727272727273007
40
0.73030303030303312
40
0.73333333333333617
40
0.73636363636363922
40
0.73939393939394227
40
0.74242424242424532
40
0.74545454545454837
40
0.74848484848485142
40
0.75151515151515447
40
0.75454545454545752
40
0.75757575757576057
40
0.76060606060606362
40
0.76363636363636667
40
0.76666666666666972
40
0.76969696969697277
40
0.77272727272727582
40
0.77575757575757887
40
0.77878787878788192
40
0.78181818181818497
40
0.78484848484848801
40
0.78787878787879106
40
0.79090909090909411
40
0.79393939393939716
40
0.79696969696970021
40
0.80000000000000326
40
0.80303030303030631
40
0.80606060606060936
40
0.80909090909091241
40
0.81212121212121546
40
0.81515151515151851
40
0.81818181818182156
40
0.82121212121212461
40
0.82424242424242766
40
0.82727272727273071
40
0.83030303030303376
40
0.83333333333333681
40
0.83636363636363986
40
0.83939393939394291
40
0.84242424242424596
40
0.84545454545454901
40
0.84848484848485206
40
0.85151515151515511
40
0.85454545454545816
40
0.85757575757576121
40
0.86060606060606426
40
0.86363636363636731
40
0.86666666666667036
40
0.86969696969697341
40
0.87272727272727646
40
0.87575757575757951
40
0.87878787878788256
40
0.88181818181818561
40
0.88484848484848866
40
0.88787878787879171
40
0.89090909090909476
40
0.89393939393939781
40
0.89696969696970086
40
0.90000000000000391
40
0.90303030303030696
40
0.90606060606061001
40
0.90909090909091306
40
0.91212121212121611
40
0.91515151515151916
40
0.91818181818182221
40
0.92121212121212526
40
0.92424242424242831
40
0.92727272727273136
40
0.93030303030303441
40
0.93333333333333746
40
0.93636363636364051
40
0.93939393939394356
40
0.94242424242424661
40
0.94545454545454966
40
0.94848484848485271
40
0.95151515151515575
40
0.9545454545454588
40
0.95757575757576185
40
0.9606060606060649
40
0.96363636363636795
40
0.966666666666671
40
0.96969696969697405
40
0.9727272727272771
40
0.97575757575758015
40
0.9787878787878832
40
0.98181818181818625
40
0.9848484848484893
40
0.98787878787879235
40
0.9909090909090954
40
0.99393939393939845
40
0.9969696969697015
40
1
40
1
40
1
40
1
40
1
40
1
41
1
41
1
41
1
41
1
41
1
41
1
41
1
41
1
41
1
41
1
41
1
41
1
41
1
41
1
41
1
41
1
41
1
41
1
41
1
41
1
41
1
41
1
41
1
41
1
41
1
41
1
41
1
41
1
41
1
41
1
41
1
41
1
41
1
41
1
41
1
41
1
41
1
41
1
41
1
41
1
41
1
41
1
41
1
41
1
41
1
41
1
41
1
41
1
41
1
41
1
41
1
41
1
41
1
41
1
41
1
41
1
41
1
41
1
41
1
41
1
41
1
41
1
41
1
41
1
41
1
41
1
41
1
41
1
41
1
41
1
41
1
41
1
41
1
41
1
41
1
41
1
41
1
41
1
41
1
41
1
41
1
41
1
41
1
41
1
41
1
41
1
41
1
41
1
41
1
41
1
41
1
41
1
41
1
41
1
41
1
41
1
41
1
41
1
41
1
41
1
41
1
41
1
41
1
41
1
41
1
41
1
41
1
41
1
41
1
41
1
41
1
41
1
41
1
41
1
41
1
41
1
41
1
41
1
41
1
41
1
41
1
41
1
41
1
41
1
41
1
41
1
41
1
41
1
41
1
41
1
41
1
41
1
41
1
41
1
41
1
41
1
41
1
41
1
41
1
41
1
41
1
41
1
41
1
41
1
41
1
41
1
41
1
41
1
41
1
41
1
41
1
41
1
41
1
41
1
41
1
41
1
41
1
41
1
41
1
41
1
41
1
41
1
41
1
41
1
41
1
41
1
41
1
41
1
41
1
41
1
41
1
41
1
41
1
41
1
41
1
41
1
41
1
41
1
41
1
41
1
41
1
41
1
41
1
41
1
41
1
41
1
41
1
41
1
41
1
41
1
41
1
41
1
41
1
41
1
41
1
41
1
41
1
41
1
41
1
41
1
41
1
41
1
41
1
41
1
41
1
41
1
41
1
41
1
41
1
41
1
41
1
41
1
41
1
41
1
41
1
41
1
41
1
41
1
41
1
41
1
41
1
41
1
41
1
41
1
41
1
41
1
41
1
41
1
41
1
41
1
41
1
41
1
41
1
41
1
41
1
41
1
41
1
41
1
41
1
41
1
41
1
41
1
41
1
41
1
41
1
41
1
41
1
41
1
41
1
41
1
41
1
41
1
41
1
41
1
41
1
41
1
41
1
41
1
41
1
41
1
41
1
41
1
41
1
41
1
41
1
41
1
41
1
41
1
41
1
41
1
41
1
41
1
41
1
41
1
41
1
41
1
41
1
41
1
41
1
41
1
41
1
41
1
41
1
41
1
41
1
41
1
41
1
41
1
41
1
41
1
41
1
41
1
41
1
41
1
41
1
41
1
41
1
41
1
41
1
41
1
41
1
41
1
41
1
41
1
41
1
41
1
41
1
41
1
41
1
41
1
41
1
41
1
41
1
41
1
41
1
41
1
41
1
41
1
41
1
41
1
41
1
41
1
41
1
41
1
41
1
41
1
41
1
41
1
41
1
41
1
41
1
41
1
41
1
41
1
41
1
10
27.5
20
0
30
0
10
27.499999935293392
20
0.12500441900237097
30
0
10
27.506355386600884
20
0.37501323322848751
30
0
10
27.534955309008279
20
0.74870926096600743
30
0
10
27.612485117409726
20
1.2390677704931476
30
0
10
27.780477654123782
20
1.8273350704060185
30
0
10
28.02317613285771
20
2.3827362626494319
30
0
10
28.338360458569596
20
2.9020711331840232
30
0
10
28.713905009685398
20
3.3887895042269482
30
0
10
29.123738569910756
20
3.8546459725327047
30
0
10
29.533698665607059
20
4.3161981509792815
30
0
10
29.907354057340019
20
4.7913212013457587
30
0
10
30.211857745296307
20
5.2957072501467994
30
0
10
30.423743553768062
20
5.8393923520139088
30
0
10
30.534867327706436
20
6.4232130070298989
30
0
10
30.54814623865887
20
7.0402229457332393
30
0
10
30.473150426867306
20
7.6771814109433194
30
0
10
30.321749730119908
20
8.3160149440341531
30
0
10
30.103736946180675
20
8.9352894349168075
30
0
10
29.822462007478492
20
9.5116789430410442
30
0
10
29.4777106440776
20
10.02356172561198
30
0
10
29.068590461166011
20
10.454624878472965
30
0
10
28.596402828841647
20
10.797447652039205
30
0
10
28.067546793827859
20
11.057136851676679
30
0
10
27.496337402469265
20
11.254822221118008
30
0
10
26.901923412317757
20
11.421463361992622
30
0
10
26.305288590963315
20
11.591794130139665
30
0
10
25.72622044106755
20
11.798213349237177
30
0
10
25.180296414711648
20
12.064704725196799
30
0
10
24.675852173012064
20
12.400725886851717
30
0
10
24.216485672586742
20
12.804784744197077
30
0
10
23.803572256617436
20
13.268035060124152
30
0
10
23.438775510954279
20
13.777864492891648
30
0
10
23.126559977636092
20
14.321485520984094
30
0
10
22.876702977252648
20
14.889525030269503
30
0
10
22.699985978392085
20
15.475230596976257
30
0
10
22.603884376428983
20
16.073676516014327
30
0
10
22.588260674996484
20
16.680970322081503
30
0
10
22.641049037362777
20
17.293458584318518
30
0
10
22.733961945934816
20
17.906934735094655
30
0
10
22.829308377704734
20
18.516858297059674
30
0
10
22.886776381719834
20
19.118570598143627
30
0
10
22.870249499236269
20
19.707514266383683
30
0
10
22.754560826258373
20
20.279445395777216
30
0
10
22.532406817490383
20
20.83066463233035
30
0
10
22.209996990602406
20
21.35690554432837
30
0
10
21.802540753668559
20
21.852203306459717
30
0
10
21.329794899108308
20
22.307770876610359
30
0
10
20.81158580743676
20
22.710871120133458
30
0
10
20.263342576711494
20
23.0436921173408
30
0
10
19.696574548291537
20
23.287928657646368
30
0
10
19.119350413726913
20
23.429374987736669
30
0
10
18.536776915331743
20
23.46249194960102
30
0
10
17.951476326341044
20
23.395035247146975
30
0
10
17.364067628140802
20
23.25251965029581
30
0
10
16.773921756337561
20
23.071342633229172
30
0
10
16.179912839334079
20
22.892068856143737
30
0
10
15.581171057132382
20
22.752651875532312
30
0
10
14.977834425958697
20
22.681689875150056
30
0
10
14.371802169992785
20
22.691645717305349
30
0
10
13.766907767710466
20
22.78320937821708
30
0
10
13.169090868283948
20
22.949682496327576
30
0
10
12.586569715935532
20
23.181354297003722
30
0
10
12.030013578513177
20
23.469880946252086
30
0
10
11.512715149591068
20
23.81266329729187
30
0
10
11.047395013615674
20
24.2098497517607
30
0
10
10.643004910581542
20
24.661338046715887
30
0
10
10.301533596807372
20
25.163779295822188
30
0
10
10.014805838362344
20
25.707576753628366
30
0
10
9.7612989032989859
20
26.273898243618842
30
0
10
9.5117598527422142
20
26.838546767692542
30
0
10
9.2347947838137205
20
27.375808915395965
30
0
10
8.902484499305249
20
27.862324749685602
30
0
10
8.4959516811303466
20
28.280917814094639
30
0
10
8.0110522177741128
20
28.624527419307711
30
0
10
7.4553164950436663
20
28.892921533281726
30
0
10
6.8447643092464272
20
29.089305052465278
30
0
10
6.200766765434194
20
29.216967175040033
30
0
10
5.546889091146026
20
29.275911692054759
30
0
10
4.9057409204516507
20
29.259495863331992
30
0
10
4.2969010714444265
20
29.158542785517852
30
0
10
3.7348375694799714
20
28.965464082446285
30
0
10
3.2268411744863137
20
28.678360831210927
30
0
10
2.770924832986319
20
28.305175253068725
30
0
10
2.3538149391906749
20
27.86770638495809
30
0
10
1.955304330261467
20
27.396233632733058
30
0
10
1.552514951691542
20
26.924273467951487
30
0
10
1.1241958225268252
20
26.483284193901888
30
0
10
0.6550017039614453
20
26.097398750905796
30
0
10
0.13979239297964727
20
25.778128364021825
30
0
10
-0.41858021241487475
20
25.528126013118509
30
0
10
-1.011497953703878
20
25.344967894655174
30
0
10
-1.6267971627655924
20
25.22492790343971
30
0
10
-2.2509912630990008
20
25.166755001339112
30
0
10
-2.8714925244335938
20
25.175449219662013
30
0
10
-3.4776799421466338
20
25.258012668984357
30
0
10
-4.0619675458218474
20
25.419198996272556
30
0
10
-4.6208717425345851
20
25.657266141907648
30
0
10
-5.1560815844055075
20
25.959720944719397
30
0
10
-5.6755217024157876
20
26.299084702289019
30
0
10
-6.1907193499063338
20
26.639186271693621
30
0
10
-6.7141830393356825
20
26.941421330233002
30
0
10
-7.2567705585303734
20
27.171043990741602
30
0
10
-7.8250762245555876
20
27.303398649853705
30
0
10
-8.4187689890201725
20
27.330305001901458
30
0
10
-9.0313884422668131
20
27.255639083047306
30
0
10
-9.6511905718923749
20
27.090757979521442
30
0
10
-10.261975135065665
20
26.849982832619716
30
0
10
-10.843919850463475
20
26.546057155455735
30
0
10
-11.37441294706877
20
26.185616410433571
30
0
10
-11.83202226646066
20
25.771525603405326
30
0
10
-12.200473945301734
20
25.305222991168151
30
0
10
-12.472607970813147
20
24.789052780525871
30
0
10
-12.654389847745513
20
24.228622110953136
30
0
10
-12.768771493012856
20
23.635093246201464
30
0
10
-12.849122536474225
20
23.023014026382231
30
0
10
-12.932809594889424
20
22.408211491511093
30
0
10
-13.054717773867663
20
21.805660902651844
30
0
10
-13.24080356234937
20
21.227367918656146
30
0
10
-13.501614612406481
20
20.680237394711529
30
0
10
-13.836186063972683
20
20.168043011972721
30
0
10
-14.235957453620319
20
19.693405065414588
30
0
10
-14.688681568012925
20
19.259765131357138
30
0
10
-15.182336414744606
20
18.873362163295464
30
0
10
-15.709035742269339
20
18.545207896015143
30
0
10
-16.263630219711779
20
18.286935028396595
30
0
10
-16.842308138241243
20
18.106643867991259
30
0
10
-17.441197084466257
20
18.004752273517049
30
0
10
-18.05496366658247
20
17.969837158484307
30
0
10
-18.6754184002606
20
17.974497588434058
30
0
10
-19.292703031819215
20
17.982072357926704
30
0
10
-19.896469318972546
20
17.953322831707311
30
0
10
-20.477066369248007
20
17.853148746160056
30
0
10
-21.026711849615257
20
17.657243330880441
30
0
10
-21.540704657302872
20
17.358903853098525
30
0
10
-22.015705493222505
20
16.964883803087698
30
0
10
-22.447974769833756
20
16.491086662227914
30
0
10
-22.83162656915859
20
15.958318653755656
30
0
10
-23.156874990351696
20
15.388017037476855
30
0
10
-23.408285202979972
20
14.797988765947565
30
0
10
-23.569376267161818
20
14.202231135110923
30
0
10
-23.627235318202928
20
13.610752398356404
30
0
10
-23.577106343940649
20
13.029395623101101
30
0
10
-23.427039294790475
20
12.459652639872292
30
0
10
-23.202377327340447
20
11.8985049993631
30
0
10
-22.93905791676849
20
11.340150139497238
30
0
10
-22.677072605285545
20
10.777700695371561
30
0
10
-22.453864848611822
20
10.204894346247357
30
0
10
-22.297761383984206
20
9.6177977576483471
30
0
10
-22.22136850752484
20
9.0165171721562274
30
0
10
-22.22591473335914
20
8.4047488551090019
30
0
10
-22.305615179803269
20
7.789325274856516
30
0
10
-22.45202749200525
20
7.1797630130662382
30
0
10
-22.658411159298964
20
6.5878101912090683
30
0
10
-22.924085238006057
20
6.0269940995590101
30
0
10
-23.251006947167401
20
5.5098847255995809
30
0
10
-23.640349030159193
20
5.0453572470536692
30
0
10
-24.089079717014382
20
4.6358567737851608
30
0
10
-24.586536486218776
20
4.2746570432333613
30
0
10
-25.11101584154412
20
3.9431344919837081
30
0
10
-25.63440394817572
20
3.6157775257710414
30
0
10
-26.12678130289213
20
3.2651711862324282
30
0
10
-26.561052423091212
20
2.8670049189936089
30
0
10
-26.917529161395748
20
2.4050380144717955
30
0
10
-27.188632927566342
20
1.8761733830901157
30
0
10
-27.375205736949479
20
1.2878977837887498
30
0
10
-27.482699719489368
20
0.65561185012738388
30
0
10
-27.517412019432491
20
1.0584155605880725e-06
30
0
10
-27.482700070787104
20
-0.65560976336827803
30
0
10
-27.375206433309085
20
-1.2878957541346023
30
0
10
-27.18863396761904
20
-1.8761713704112912
30
0
10
-26.917530550967356
20
-2.4050359119526585
30
0
10
-26.561054172064647
20
-2.8670025833480217
30
0
10
-26.126783424612853
20
-3.2651685086689937
30
0
10
-25.63440643172423
20
-3.6157745139534905
30
0
10
-25.111018619449126
20
-3.943131291005388
30
0
10
-24.586539423364794
20
-4.2746539199537139
30
0
10
-24.089082616673963
20
-4.6358540607526724
30
0
10
-23.640351645984055
20
-5.0453552353016278
30
0
10
-23.251009041519328
20
-5.5098835448935644
30
0
10
-22.924086647041687
20
-6.0269936781352378
30
0
10
-22.658411821671415
20
-6.5878102537268912
30
0
10
-22.452027457056158
20
-7.1797631320919777
30
0
10
-22.305614588780855
20
-7.7893249693427569
30
0
10
-22.225913775842415
20
-8.404747738800209
30
0
10
-22.221367383982162
20
-9.0165150465886317
30
0
10
-22.29776027104764
20
-9.6177946510317582
30
0
10
-22.453863876038938
20
-10.204890496224889
30
0
10
-22.67707182297378
20
-10.777696479961898
30
0
10
-22.939057310426488
20
-11.340145944816115
30
0
10
-23.202376866359291
20
-11.898501122955139
30
0
10
-23.427038957486555
20
-12.45964924027481
30
0
10
-23.577106135356047
20
-13.029392712664569
30
0
10
-23.62723528592733
20
-13.610749878344716
30
0
10
-23.569376480347735
20
-14.202228879641401
30
0
10
-23.408285714476044
20
-14.79798668201208
30
0
10
-23.156875823006278
20
-15.388015092056584
30
0
10
-22.831627713603741
20
-15.958316872963982
30
0
10
-22.447976193553796
20
-16.49108509666128
30
0
10
-22.01570717635564
20
-16.964882472115882
30
0
10
-21.540706620391763
20
-17.358902722221579
30
0
10
-21.026714155307808
20
-17.657242313388565
30
0
10
-20.477069103323359
20
-17.853147726856285
30
0
10
-19.896472551474773
20
-17.953321726285971
30
0
10
-19.292706749420077
20
-17.982071166931725
30
0
10
-18.675422467758086
20
-17.974496397448299
30
0
10
-18.054967826036709
20
-17.969836118955218
30
0
10
-17.441200990591341
20
-18.004751558843264
30
0
10
-16.842311426450976
20
-18.106643589819416
30
0
10
-16.26363261993458
20
-18.286935167415475
30
0
10
-15.709037155468245
20
-18.545208303272858
30
0
10
-15.182336938170378
20
-18.873362573994164
30
0
10
-14.688681474261696
20
-19.259765212593074
30
0
10
-14.235957121591554
20
-19.693404488869351
30
0
10
-13.836185861976926
20
-20.168041555201476
30
0
10
-13.501614816387555
20
-20.68023499913734
30
0
10
-13.240804305649487
20
-21.227364703505145
30
0
10
-13.054719037166681
20
-21.805657137994263
30
0
10
-12.932811215790982
20
-22.408207522332837
30
0
10
-12.84912429420489
20
-23.023010169778114
30
0
10
-12.768773200957153
20
-23.635089735933764
30
0
10
-12.654391401949631
20
-24.22861906866914
30
0
10
-12.472609368841344
20
-24.789050219341483
30
0
10
-12.200475280570091
20
-25.305220853750118
30
0
10
-11.832023665201898
20
-25.771523821240958
30
0
10
-11.374414504026642
20
-26.185614933851561
30
0
10
-10.843921602710648
20
-26.546055969031489
30
0
10
-10.261977060603053
20
-26.849981953256268
30
0
10
-9.6511926160107979
20
-27.090757432203606
30
0
10
-9.0313905777850962
20
-27.255638873331872
30
0
10
-8.4187712518723892
20
-27.330305111872043
30
0
10
-7.8250787143241753
20
-27.303399040435874
30
0
10
-7.2567734096581447
20
-27.171044611401477
30
0
10
-6.7141863563266515
20
-26.941422147916661
30
0
10
-6.190723121253459
20
-26.639187279652518
30
0
10
-5.6755257681096332
20
-26.299085899423883
30
0
10
-5.156085645573933
20
-25.959722318982891
30
0
10
-4.6208754149578812
20
-25.657267652496344
30
0
10
-4.0619704624299349
20
-25.419200539999764
30
0
10
-3.4776818861815935
20
-25.258014083592805
30
0
10
-2.8714934931103739
20
-25.175450326302048
30
0
10
-2.250991481391261
20
-25.166755629826167
30
0
10
-1.6267970399776179
20
-25.224927921093965
30
0
10
-1.0114979860883788
20
-25.344967230126251
30
0
10
-0.41858083007676344
20
-25.528124678397546
30
0
10
0.13979092623317133
20
-25.778126459017145
30
0
10
0.65499934041477925
20
-26.097396448006958
30
0
10
1.124192724444488
20
-26.483281709861338
30
0
10
1.5525114422036665
20
-26.924271005192104
30
0
10
1.9553007665284914
20
-27.396231338652761
30
0
10
2.3538116045842576
20
-27.867704355318068
30
0
10
2.7709218807247709
20
-28.305173534003181
30
0
10
3.2268386137093419
20
-28.678359432436608
30
0
10
3.7348352906045172
20
-28.965463006236135
30
0
10
4.2968989312365853
20
-29.15854204248204
30
0
10
4.9057388123541505
20
-29.25949546290672
30
0
10
5.546886975632316
20
-29.275911641307161
30
0
10
6.2007646701494661
20
-29.216967476296468
30
0
10
6.8447622937223347
20
-29.089305697166488
30
0
10
7.4553145851504823
20
-28.892922511406866
30
0
10
8.0110503735958787
20
-28.624528735211431
30
0
10
8.4959497977680645
20
-28.280919488743763
30
0
10
8.9024824363380635
20
-27.862326813253834
30
0
10
9.2347924354570043
20
-27.375811396575997
30
0
10
9.5117572250275693
20
-26.838549654586153
30
0
10
9.7612961302404671
20
-26.273901448793488
30
0
10
10.014803164873637
20
-25.707580105366219
30
0
10
10.301531324054329
20
-25.16378255207211
30
0
10
10.64300329157598
20
-24.661340922218599
30
0
10
11.047394142983308
20
-24.209851992828753
30
0
10
11.512714932981911
20
-23.812664751962007
30
0
10
12.03001373465915
20
-23.469881592986258
30
0
10
12.586569828776049
20
-23.181354245471191
30
0
10
13.169090481769846
20
-22.94968195479899
30
0
10
13.766906526497156
20
-22.783208589312011
30
0
10
14.371799906165595
20
-22.691644907696784
30
0
10
14.977831192576847
20
-22.681689215658242
30
0
10
15.58116710788614
20
-22.752651460774178
30
0
10
16.179908555495707
20
-22.892068681711049
30
0
10
16.773917518059463
20
-23.071342630025626
30
0
10
17.36406372558352
20
-23.252519745678462
30
0
10
17.951472913342769
20
-23.395035397090336
30
0
10
18.536774004834786
20
-23.46249215733781
30
0
10
19.11934791477271
20
-23.429375314423844
30
0
10
19.696572346119879
20
-23.287929189648015
30
0
10
20.263340586781933
20
-23.043692920204755
30
0
10
20.811584000317875
20
-22.710872221174782
30
0
10
21.329793299314304
20
-22.307772262839851
30
0
10
21.802539406653114
20
-21.852204938491134
30
0
10
22.209995912711648
20
-21.356907399745069
30
0
10
22.532405977499756
20
-20.830666736376322
30
0
10
22.754560147256832
20
-20.279447822803807
30
0
10
22.87024887940715
20
-19.707517117691896
30
0
10
22.886775747583616
20
-19.118573955062622
30
0
10
22.829307727902677
20
-18.516862146318836
30
0
10
22.733961345937189
20
-17.906938930687673
30
0
10
22.641048600366858
20
-17.293462849376933
30
0
10
22.588260523496579
20
-16.680974290156236
30
0
10
22.60388456904932
20
-16.073679810341229
30
0
10
22.699986457582892
20
-15.475232952981324
30
0
10
22.876703581483866
20
-14.889526371122773
30
0
10
23.126560458645521
20
-14.321485980631882
30
0
10
23.4387755780213
20
-13.777864388533335
30
0
10
23.803571638688648
20
-13.268034813527038
30
0
10
24.216484201897241
20
-12.80478475157949
30
0
10
24.675849830851725
20
-12.400726429684219
30
0
10
25.180293338069305
20
-12.064705918495896
30
0
10
25.726216894515201
20
-11.798215135444091
30
0
10
26.305284892864126
20
-11.591796299414591
30
0
10
26.901919845119675
20
-11.421465650682489
30
0
10
27.496334170997009
20
-11.254824411239543
30
0
10
28.067544003696348
20
-11.057138823022395
30
0
10
28.596400492686843
20
-10.797449400331914
30
0
10
29.068588535532733
20
-10.454626504337028
30
0
10
29.477709079115286
20
-10.023563363745051
30
0
10
29.822460767504619
20
-9.5116806942909307
30
0
10
30.10373602120346
20
-8.9352913381739878
30
0
10
30.321749133739697
20
-8.316016975118302
30
0
10
30.473150176028874
20
-7.6771835121471046
30
0
10
30.548146334994261
20
-7.0402250893614218
30
0
10
30.534867758595539
20
-6.4232152312000599
30
0
10
30.423744294705873
20
-5.8393947608550745
30
0
10
30.211858765396421
20
-5.2957099839247466
30
0
10
29.907355338757394
20
-4.7913243682050393
30
0
10
29.533700200024377
20
-4.3162017404908584
30
0
10
29.123740333468454
20
-3.854649826472615
30
0
10
28.71390694792516
20
-3.3887933284797715
30
0
10
28.338362476422958
20
-2.9020745532479548
30
0
10
28.02317807594827
20
-2.3827389298753014
30
0
10
27.780479330997984
20
-1.8273367933339115
30
0
10
27.612486350642268
20
-1.239068571818597
30
0
10
27.534956078179484
20
-0.74870952253369427
30
0
10
27.5063557748405
20
-0.37501328078536506
30
0
10
27.500000064706605
20
-0.12500441900218401
30
0
10
27.5
20
0
30
0
0
CIRCLE
5
103
100
AcDbEntity
8
0
100
AcDbCircle
10
2
20
0
30
0
40
7.5
210
0
220
0
230
1
0
CIRCLE
5
104
100
AcDbEntity
8
0
100
AcDbCircle
10
18.5
20
0
30
0
40
8.0000000000000036
210
0
220
0
230
1
0
LINE
5
105
100
AcDbEntity
8
1
100
AcDbLine
10
2
20
0
30
0
11
18.5
21
0
31
0
0
CIRCLE
5
106
100
AcDbEntity
8
0
100
AcDbCircle
10
2.0000000000000013
20
16.5
30
0
40
8
210
0
220
0
230
1
0
LINE
5
107
100
AcDbEntity
8
1
100
AcDbLine
10
2
20
0
30
0
11
2.0000000000000013
21
16.5
31
0
0
CIRCLE
5
108
100
AcDbEntity
8
0
100
AcDbCircle
10
-14.500000000000002
20
2.0206672185931331e-15
30
0
40
8
210
0
220
0
230
1
0
LINE
5
109
100
AcDbEntity
8
1
100
AcDbLine
10
2
20
0
30
0
11
-14.500000000000002
21
2.0206672185931331e-15
31
0
0
CIRCLE
5
110
100
AcDbEntity
8
0
100
AcDbCircle
10
1.9999999999999971
20
-16.5
30
0
40
8
210
0
220
0
230
1
0
LINE
5
111
100
AcDbEntity
8
1
100
AcDbLine
10
2
20
0
30
0
11
1.9999999999999971
21
-16.5
31
0
0
ENDSEC
0
SECTION
2
OBJECTS
0
DICTIONARY
5
C
100
AcDbDictionary
3
ACAD_GROUP
350
D
3
ACAD_MLINESTYLE
350
17
0
DICTIONARY
5
D
100
AcDbDictionary
0
DICTIONARY
5
1A
330
C
100
AcDbDictionary
0
DICTIONARY
5
17
100
AcDbDictionary
0
ENDSEC
0
EOF
