0
SECTION
2
HEADER
9
$INSUNITS
70
4
9
$ACADVER
1
AC1014
9
$HANDSEED
5
FFFF
0
ENDSEC
0
SECTION
2
TABLES
0
TABLE
2
VPORT
5
8
100
AcDbSymbolTable
0
ENDTAB
0
TABLE
2
LTYPE
5
5
100
AcDbSymbolTable
0
LTYPE
5
14
100
AcDbSymbolTableRecord
100
AcDbLinetypeTableRecord
2
BYBLOCK
70
0
0
LTYPE
5
15
100
AcDbSymbolTableRecord
100
AcDbLinetypeTableRecord
2
BYLAYER
70
0
0
ENDTAB
0
TABLE
2
LAYER
5
2
100
AcDbSymbolTable
70
2
0
LAYER
5
50
100
AcDbSymbolTableRecord
100
AcDbLayerTableRecord
2
0
70
0
6
CONTINUOUS
0
ENDTAB
0
TABLE
2
STYLE
5
3
100
AcDbSymbolTable
70
1
0
STYLE
5
11
100
AcDbSymbolTableRecord
100
AcDbTextStyleTableRecord
2
STANDARD
70
0
0
ENDTAB
0
TABLE
2
VIEW
5
6
100
AcDbSymbolTable
70
0
0
ENDTAB
0
TABLE
2
UCS
5
7
100
AcDbSymbolTable
70
0
0
ENDTAB
0
TABLE
2
APPID
5
9
100
AcDbSymbolTable
70
2
0
APPID
5
12
100
AcDbSymbolTableRecord
100
AcDbRegAppTableRecord
2
ACAD
70
0
0
ENDTAB
0
TABLE
2
DIMSTYLE
5
A
100
AcDbSymbolTable
70
1
0
ENDTAB
0
TABLE
2
BLOCK_RECORD
5
1
100
AcDbSymbolTable
70
1
0
BLOCK_RECORD
5
1F
100
AcDbSymbolTableRecord
100
AcDbBlockTableRecord
2
*MODEL_SPACE
0
BLOCK_RECORD
5
1B
100
AcDbSymbolTableRecord
100
AcDbBlockTableRecord
2
*PAPER_SPACE
0
ENDTAB
0
ENDSEC
0
SECTION
2
BLOCKS
0
BLOCK
5
20
100
AcDbEntity
100
AcDbBlockBegin
2
*MODEL_SPACE
0
ENDBLK
5
21
100
AcDbEntity
100
AcDbBlockEnd
0
BLOCK
5
1C
100
AcDbEntity
100
AcDbBlockBegin
2
*PAPER_SPACE
0
ENDBLK
5
1D
100
AcDbEntity
100
AcDbBlockEnd
0
ENDSEC
0
SECTION
2
ENTITIES
0
SPLINE
5
100
100
AcDbEntity
8
0
100
AcDbSpline
70
6
71
5
72
311
73
305
74
0
42
0.000000001
43
0.0000000001
44
0.0000000001
40
0
40
0
40
0
40
0
40
0
40
0
40
0.0033333333333333335
40
0.0066666666666666671
40
0.01
40
0.013333333333333334
40
0.016666666666666666
40
0.02
40
0.023333333333333334
40
0.026666666666666668
40
0.030000000000000002
40
0.033333333333333333
40
0.036666666666666667
40
0.040000000000000001
40
0.043333333333333335
40
0.046666666666666669
40
0.050000000000000003
40
0.053333333333333337
40
0.056666666666666671
40
0.060000000000000005
40
0.063333333333333339
40
0.066666666666666666
40
0.069999999999999993
40
0.07333333333333332
40
0.076666666666666647
40
0.079999999999999974
40
0.083333333333333301
40
0.086666666666666628
40
0.089999999999999955
40
0.093333333333333282
40
0.096666666666666609
40
0.099999999999999936
40
0.10333333333333326
40
0.10666666666666659
40
0.10999999999999992
40
0.11333333333333324
40
0.11666666666666657
40
0.1199999999999999
40
0.12333333333333323
40
0.12666666666666657
40
0.12999999999999989
40
0.13333333333333322
40
0.13666666666666655
40
0.13999999999999987
40
0.1433333333333332
40
0.14666666666666653
40
0.14999999999999986
40
0.15333333333333318
40
0.15666666666666651
40
0.15999999999999984
40
0.16333333333333316
40
0.16666666666666649
40
0.16999999999999982
40
0.17333333333333314
40
0.17666666666666647
40
0.1799999999999998
40
0.18333333333333313
40
0.18666666666666645
40
0.18999999999999978
40
0.19333333333333311
40
0.19666666666666643
40
0.19999999999999976
40
0.20333333333333309
40
0.20666666666666642
40
0.20999999999999974
40
0.21333333333333307
40
0.2166666666666664
40
0.21999999999999972
40
0.22333333333333305
40
0.22666666666666638
40
0.2299999999999997
40
0.23333333333333303
40
0.23666666666666636
40
0.23999999999999969
40
0.24333333333333301
40
0.24666666666666634
40
0.24999999999999967
40
0.25333333333333302
40
0.25666666666666638
40
0.25999999999999973
40
0.26333333333333309
40
0.26666666666666644
40
0.2699999999999998
40
0.27333333333333315
40
0.27666666666666651
40
0.27999999999999986
40
0.28333333333333321
40
0.28666666666666657
40
0.28999999999999992
40
0.29333333333333328
40
0.29666666666666663
40
0.29999999999999999
40
0.30333333333333334
40
0.3066666666666667
40
0.31000000000000005
40
0.31333333333333341
40
0.31666666666666676
40
0.32000000000000012
40
0.32333333333333347
40
0.32666666666666683
40
0.33000000000000018
40
0.33333333333333354
40
0.33666666666666689
40
0.34000000000000025
40
0.3433333333333336
40
0.34666666666666696
40
0.35000000000000031
40
0.35333333333333367
40
0.35666666666666702
40
0.36000000000000038
40
0.36333333333333373
40
0.36666666666666708
40
0.37000000000000044
40
0.37333333333333379
40
0.37666666666666715
40
0.3800000000000005
40
0.38333333333333386
40
0.38666666666666721
40
0.39000000000000057
40
0.39333333333333392
40
0.39666666666666728
40
0.40000000000000063
40
0.40333333333333399
40
0.40666666666666734
40
0.4100000000000007
40
0.41333333333333405
40
0.41666666666666741
40
0.42000000000000076
40
0.42333333333333412
40
0.42666666666666747
40
0.43000000000000083
40
0.43333333333333418
40
0.43666666666666754
40
0.44000000000000089
40
0.44333333333333425
40
0.4466666666666676
40
0.45000000000000095
40
0.45333333333333431
40
0.45666666666666766
40
0.46000000000000102
40
0.46333333333333437
40
0.46666666666666773
40
0.47000000000000108
40
0.47333333333333444
40
0.47666666666666779
40
0.48000000000000115
40
0.4833333333333345
40
0.48666666666666786
40
0.49000000000000121
40
0.49333333333333457
40
0.49666666666666792
40
0.50000000000000122
40
0.50333333333333452
40
0.50666666666666782
40
0.51000000000000112
40
0.51333333333333442
40
0.51666666666666772
40
0.52000000000000102
40
0.52333333333333432
40
0.52666666666666762
40
0.53000000000000091
40
0.53333333333333421
40
0.53666666666666751
40
0.54000000000000081
40
0.54333333333333411
40
0.54666666666666741
40
0.55000000000000071
40
0.55333333333333401
40
0.55666666666666731
40
0.56000000000000061
40
0.56333333333333391
40
0.56666666666666721
40
0.57000000000000051
40
0.57333333333333381
40
0.5766666666666671
40
0.5800000000000004
40
0.5833333333333337
40
0.586666666666667
40
0.5900000000000003
40
0.5933333333333336
40
0.5966666666666669
40
0.6000000000000002
40
0.6033333333333335
40
0.6066666666666668
40
0.6100000000000001
40
0.6133333333333334
40
0.6166666666666667
40
0.62
40
0.62333333333333329
40
0.62666666666666659
40
0.62999999999999989
40
0.63333333333333319
40
0.63666666666666649
40
0.63999999999999979
40
0.64333333333333309
40
0.64666666666666639
40
0.64999999999999969
40
0.65333333333333299
40
0.65666666666666629
40
0.65999999999999959
40
0.66333333333333289
40
0.66666666666666619
40
0.66999999999999948
40
0.67333333333333278
40
0.67666666666666608
40
0.67999999999999938
40
0.68333333333333268
40
0.68666666666666598
40
0.68999999999999928
40
0.69333333333333258
40
0.69666666666666588
40
0.69999999999999918
40
0.70333333333333248
40
0.70666666666666578
40
0.70999999999999908
40
0.71333333333333238
40
0.71666666666666567
40
0.71999999999999897
40
0.72333333333333227
40
0.72666666666666557
40
0.72999999999999887
40
0.73333333333333217
40
0.73666666666666547
40
0.73999999999999877
40
0.74333333333333207
40
0.74666666666666537
40
0.74999999999999867
40
0.75333333333333197
40
0.75666666666666527
40
0.75999999999999857
40
0.76333333333333186
40
0.76666666666666516
40
0.76999999999999846
40
0.77333333333333176
40
0.77666666666666506
40
0.77999999999999836
40
0.78333333333333166
40
0.78666666666666496
40
0.78999999999999826
40
0.79333333333333156
40
0.79666666666666486
40
0.79999999999999816
40
0.80333333333333146
40
0.80666666666666476
40
0.80999999999999805
40
0.81333333333333135
40
0.81666666666666465
40
0.81999999999999795
40
0.82333333333333125
40
0.82666666666666455
40
0.82999999999999785
40
0.83333333333333115
40
0.83666666666666445
40
0.83999999999999775
40
0.84333333333333105
40
0.84666666666666435
40
0.84999999999999765
40
0.85333333333333095
40
0.85666666666666424
40
0.85999999999999754
40
0.86333333333333084
40
0.86666666666666414
40
0.86999999999999744
40
0.87333333333333074
40
0.87666666666666404
40
0.87999999999999734
40
0.88333333333333064
40
0.88666666666666394
40
0.88999999999999724
40
0.89333333333333054
40
0.89666666666666384
40
0.89999999999999714
40
0.90333333333333043
40
0.90666666666666373
40
0.90999999999999703
40
0.91333333333333033
40
0.91666666666666363
40
0.91999999999999693
40
0.92333333333333023
40
0.92666666666666353
40
0.92999999999999683
40
0.93333333333333013
40
0.93666666666666343
40
0.93999999999999673
40
0.94333333333333003
40
0.94666666666666333
40
0.94999999999999662
40
0.95333333333332992
40
0.95666666666666322
40
0.95999999999999652
40
0.96333333333332982
40
0.96666666666666312
40
0.96999999999999642
40
0.97333333333332972
40
0.97666666666666302
40
0.97999999999999632
40
0.98333333333332962
40
0.98666666666666292
40
0.98999999999999622
40
0.99333333333332952
40
0.99666666666666281
40
1
40
1
40
1
40
1
40
1
40
1
41
1
41
1
41
1
41
1
41
1
41
1
41
1
41
1
41
1
41
1
41
1
41
1
41
1
41
1
41
1
41
1
41
1
41
1
41
1
41
1
41
1
41
1
41
1
41
1
41
1
41
1
41
1
41
1
41
1
41
1
41
1
41
1
41
1
41
1
41
1
41
1
41
1
41
1
41
1
41
1
41
1
41
1
41
1
41
1
41
1
41
1
41
1
41
1
41
1
41
1
41
1
41
1
41
1
41
1
41
1
41
1
41
1
41
1
41
1
41
1
41
1
41
1
41
1
41
1
41
1
41
1
41
1
41
1
41
1
41
1
41
1
41
1
41
1
41
1
41
1
41
1
41
1
41
1
41
1
41
1
41
1
41
1
41
1
41
1
41
1
41
1
41
1
41
1
41
1
41
1
41
1
41
1
41
1
41
1
41
1
41
1
41
1
41
1
41
1
41
1
41
1
41
1
41
1
41
1
41
1
41
1
41
1
41
1
41
1
41
1
41
1
41
1
41
1
41
1
41
1
41
1
41
1
41
1
41
1
41
1
41
1
41
1
41
1
41
1
41
1
41
1
41
1
41
1
41
1
41
1
41
1
41
1
41
1
41
1
41
1
41
1
41
1
41
1
41
1
41
1
41
1
41
1
41
1
41
1
41
1
41
1
41
1
41
1
41
1
41
1
41
1
41
1
41
1
41
1
41
1
41
1
41
1
41
1
41
1
41
1
41
1
41
1
41
1
41
1
41
1
41
1
41
1
41
1
41
1
41
1
41
1
41
1
41
1
41
1
41
1
41
1
41
1
41
1
41
1
41
1
41
1
41
1
41
1
41
1
41
1
41
1
41
1
41
1
41
1
41
1
41
1
41
1
41
1
41
1
41
1
41
1
41
1
41
1
41
1
41
1
41
1
41
1
41
1
41
1
41
1
41
1
41
1
41
1
41
1
41
1
41
1
41
1
41
1
41
1
41
1
41
1
41
1
41
1
41
1
41
1
41
1
41
1
41
1
41
1
41
1
41
1
41
1
41
1
41
1
41
1
41
1
41
1
41
1
41
1
41
1
41
1
41
1
41
1
41
1
41
1
41
1
41
1
41
1
41
1
41
1
41
1
41
1
41
1
41
1
41
1
41
1
41
1
41
1
41
1
41
1
41
1
41
1
41
1
41
1
41
1
41
1
41
1
41
1
41
1
41
1
41
1
41
1
41
1
41
1
41
1
41
1
41
1
41
1
41
1
41
1
41
1
41
1
41
1
41
1
41
1
41
1
41
1
41
1
41
1
41
1
41
1
41
1
41
1
41
1
41
1
41
1
41
1
41
1
41
1
41
1
41
1
41
1
41
1
41
1
41
1
41
1
41
1
41
1
41
1
41
1
10
29.5
20
0
30
0
10
29.499999985889733
20
0.13816041738916263
30
0
10
29.507462434210467
20
0.41448124502596728
30
0
10
29.54104353672173
20
0.82810142339703008
30
0
10
29.630754943258296
20
1.374428708087041
30
0
10
29.816986277660277
20
2.0412412009965495
30
0
10
30.073284128970194
20
2.6867200145816867
30
0
10
30.390385420268089
20
3.3090006734540465
30
0
10
30.751768990029294
20
3.910718412929584
30
0
10
31.131651065903419
20
4.5001262080057796
30
0
10
31.499355087213388
20
5.0886286082895076
30
0
10
31.823659138056168
20
5.6883275893572618
30
0
10
32.077161164794468
20
6.3095598162666224
30
0
10
32.24061472676442
20
6.9584472115597285
30
0
10
32.307338884651763
20
7.6344146964673385
30
0
10
32.279738892071485
20
8.3311807028628699
30
0
10
32.165753175424811
20
9.0377799261156451
30
0
10
31.975328095368898
20
9.7395739415621989
30
0
10
31.716881004146529
20
10.419266345648806
30
0
10
31.393768713406011
20
11.05791643254933
30
0
10
31.006548733705898
20
11.63783508261141
30
0
10
30.555244023259501
20
12.145485013702825
30
0
10
30.041600929868029
20
12.574370492944926
30
0
10
29.471362474316631
20
12.927953197211533
30
0
10
28.856500949914832
20
13.222498661081678
30
0
10
28.213109296630861
20
13.482475997251761
30
0
10
27.559333159528471
20
13.73602775334845
30
0
10
26.913286928434921
20
14.010411685287004
30
0
10
26.290979116511185
20
14.327459929410626
30
0
10
25.70422669198523
20
14.699015300124373
30
0
10
25.161619599577016
20
15.129014049883695
30
0
10
24.66949291279483
20
15.61558540528226
30
0
10
24.232895966797336
20
16.15314446397187
30
0
10
23.856562727112326
20
16.734487573386851
30
0
10
23.545881391540114
20
17.352886447736434
30
0
10
23.304603156617368
20
18.001813118464774
30
0
10
23.132549546639474
20
18.674664545346094
30
0
10
23.023322486171537
20
19.364487636156685
30
0
10
22.962007122285737
20
20.063703445933196
30
0
10
22.922892967995118
20
20.763833450576872
30
0
10
22.874458738308881
20
21.45607289457125
30
0
10
22.784332009899764
20
22.131860700108938
30
0
10
22.624268316414206
20
22.783452881875043
30
0
10
22.375098584487986
20
23.404489405263483
30
0
10
22.03175584349653
20
23.990578064176376
30
0
10
21.599878197596439
20
24.538050735851208
30
0
10
21.092333213003506
20
25.042702392457823
30
0
10
20.525771914655945
20
25.498536623781284
30
0
10
19.917170654492406
20
25.896507940916401
30
0
10
19.280378217736306
20
26.223266075346238
30
0
10
18.626243043561793
20
26.464827925140849
30
0
10
17.962740720346737
20
26.610255093496619
30
0
10
17.295102169128985
20
26.65531889960663
30
0
10
16.625938868708083
20
26.606195561812193
30
0
10
15.955375966487013
20
26.483081311453876
30
0
10
15.282050340810194
20
26.315231269319632
30
0
10
14.604100352451169
20
26.136078977265889
30
0
10
13.920159143685314
20
25.978323794251509
30
0
10
13.230345265945747
20
25.869037857548626
30
0
10
12.537257815698089
20
25.824748044923783
30
0
10
11.845532533058805
20
25.85368789433219
30
0
10
11.161394213175278
20
25.958067581075724
30
0
10
10.492210577236882
20
26.136336748983091
30
0
10
9.8460456845470805
20
26.385450075828921
30
0
10
9.2312134658567597
20
26.703131367268576
30
0
10
8.6545857465580429
20
27.086304283804253
30
0
10
8.1198993064379295
20
27.529521948291581
30
0
10
7.6260649188049712
20
28.023398496574679
30
0
10
7.1654710062490352
20
28.55303570278776
30
0
10
6.7223008992903939
20
29.096462051768029
30
0
10
6.2762286481297114
20
29.628026600220487
30
0
10
5.8060964874250276
20
30.121775257695891
30
0
10
5.293605964261296
20
30.554841327688887
30
0
10
4.7269873070661861
20
30.910812135494638
30
0
10
4.1047229244638066
20
31.183156021129768
30
0
10
3.4335302069963349
20
31.372219405415489
30
0
10
2.7262908877527083
20
31.482163715030531
30
0
10
2.0000005303726915
20
31.517924979099842
30
0
10
1.2737100970550923
20
31.482163692684683
30
0
10
0.56647058134533601
20
31.372219373391776
30
0
10
-0.10472238400626593
20
31.183156006682719
30
0
10
-0.72698698413681595
20
30.910812176879126
30
0
10
-1.2936057588152083
20
30.554841467586186
30
0
10
-1.8060962673682022
20
30.121775533127675
30
0
10
-2.2762283103543206
20
29.628027027678073
30
0
10
-2.7223004049118038
20
29.096462618321254
30
0
10
-3.1654703916473883
20
28.553036364519198
30
0
10
-3.6260642826443661
20
28.023399184561995
30
0
10
-4.1198987708150048
20
27.529522580361103
30
0
10
-4.6545853979660485
20
27.086304787465259
30
0
10
-5.2312133237459078
20
26.703131697678085
30
0
10
-5.8460456915413221
20
26.385450223165606
30
0
10
-6.4922106132068356
20
26.13633673729575
30
0
10
-7.1613941322300114
20
25.958067457767186
30
0
10
-7.8455322238765373
20
25.853687710556393
30
0
10
-8.5372572376343836
20
25.824747842350966
30
0
10
-9.2303444610951839
20
25.869037661024908
30
0
10
-9.9201582246318676
20
25.97832361158385
30
0
10
-10.604099466273475
20
26.136078803167841
30
0
10
-11.282049607839991
20
26.315231101556947
30
0
10
-11.955375441969807
20
26.483081164173015
30
0
10
-12.625938528785028
20
26.606195468329716
30
0
10
-13.295101920690174
20
26.655318907185652
30
0
10
-13.962740434765122
20
26.610255249828381
30
0
10
-14.626242614812588
20
26.464828254500425
30
0
10
-15.280377598776131
20
26.223266564628204
30
0
10
-15.917169870900057
20
25.896508537848987
30
0
10
-16.525771056495092
20
25.498537247271603
30
0
10
-17.092332403143583
20
25.042702953236144
30
0
10
-17.599877540992782
20
24.538051173320774
30
0
10
-18.031755397766705
20
23.990578370163256
30
0
10
-18.375098347558499
20
23.404489628558341
30
0
10
-18.62426823243435
20
22.78345311581225
30
0
10
-18.784331993764411
20
22.131861052282893
30
0
10
-18.874458716295695
20
21.456073438929593
30
0
10
-18.922892901045788
20
20.763834199515053
30
0
10
-18.96200701401844
20
20.063704342537928
30
0
10
-19.023322375895656
20
19.36448856667581
30
0
10
-19.132549484832595
20
18.674665371532861
30
0
10
-19.304603170645002
20
18.001813730833156
30
0
10
-19.545881470779854
20
17.35288679857468
30
0
10
-19.856562819373185
20
16.734487688473958
30
0
10
-20.232895989028108
20
16.153144433373797
30
0
10
-20.669492774829877
20
15.615585353101499
30
0
10
-21.161619241422692
20
15.129014082938211
30
0
10
-21.704226105252673
20
14.699015476016491
30
0
10
-22.290978349859735
20
14.327460243498733
30
0
10
-22.913286077535901
20
14.010412077711784
30
0
10
-23.559332340263559
20
13.736028133382286
30
0
10
-24.213108605037537
20
13.482476292358015
30
0
10
-24.856500439002467
20
13.222498850232371
30
0
10
-25.471362144365944
20
12.927953321384196
30
0
10
-26.041600733331816
20
12.574370645105033
30
0
10
-26.555243884108268
20
12.145485308038547
30
0
10
-27.006548580432224
20
11.637835601081395
30
0
10
-27.393768500248143
20
11.057917192202353
30
0
10
-27.71688072107429
20
10.419267289161358
30
0
10
-27.975327767580641
20
9.7395749503906242
30
0
10
-28.165752849852566
20
9.0377808558182426
30
0
10
-28.279738618007684
20
8.3311814427246436
30
0
10
-28.30733870390457
20
7.634415206008609
30
0
10
-28.240614666334544
20
6.9584475314720908
30
0
10
-28.077161234358083
20
6.3095600548877497
30
0
10
-27.823659332004389
20
5.6883278837565268
30
0
10
-27.499355389368681
20
5.088629061624415
30
0
10
-27.131651451954287
20
4.5001268532619561
30
0
10
-26.751769429448164
20
3.9107192019361632
30
0
10
-26.390385878000842
20
3.3090014910780852
30
0
10
-26.07328456458287
20
2.6867207193098381
30
0
10
-25.816986648965941
20
2.041241688167819
30
0
10
-25.630755213552099
20
1.3744289453457605
30
0
10
-25.518615827451434
20
0.69151964110233943
30
0
10
-25.481370765381762
20
-1.8910822903277225e-08
30
0
10
-25.518615685164821
20
-0.69151960222450748
30
0
10
-25.630754943228823
20
-1.3744287080874154
30
0
10
-25.816986277676786
20
-2.0412412009965362
30
0
10
-26.073284128965586
20
-2.6867200145816694
30
0
10
-26.390385420270679
20
-3.3090006734541779
30
0
10
-26.751768990027234
20
-3.9107184129302492
30
0
10
-27.131651065902641
20
-4.5001262080069084
30
0
10
-27.499355087212045
20
-5.0886286082907093
30
0
10
-27.823659138055707
20
-5.6883275893581322
30
0
10
-28.077161164794529
20
-6.3095598162668152
30
0
10
-28.240614726764981
20
-6.9584472115593075
30
0
10
-28.307338884652509
20
-7.6344146964666866
30
0
10
-28.27973889207216
20
-8.3311807028623761
30
0
10
-28.165753175425131
20
-9.0377799261155012
30
0
10
-27.975328095368827
20
-9.7395739415623996
30
0
10
-27.716881004146025
20
-10.419266345649238
30
0
10
-27.393768713405258
20
-11.057916432549877
30
0
10
-27.006548733705241
20
-11.637835082611911
30
0
10
-26.55524402325916
20
-12.145485013703198
30
0
10
-26.041600929867926
20
-12.574370492945008
30
0
10
-25.47136247431672
20
-12.927953197211293
30
0
10
-24.856500949914935
20
-13.222498661081321
30
0
10
-24.213109296630964
20
-13.48247599725158
30
0
10
-23.559333159528499
20
-13.736027753348523
30
0
10
-22.913286928434854
20
-14.010411685287131
30
0
10
-22.290979116510879
20
-14.327459929410459
30
0
10
-21.704226691984761
20
-14.699015300123879
30
0
10
-21.161619599576568
20
-15.129014049883057
30
0
10
-20.669492912794588
20
-15.615585405281818
30
0
10
-20.232895966797315
20
-16.153144463971863
30
0
10
-19.856562727112422
20
-16.734487573387526
30
0
10
-19.545881391540188
20
-17.35288644773745
30
0
10
-19.304603156617354
20
-18.001813118465794
30
0
10
-19.1325495466393
20
-18.674664545346683
30
0
10
-19.023322486171519
20
-19.36448763615676
30
0
10
-18.962007122285932
20
-20.063703445932603
30
0
10
-18.922892967995502
20
-20.763833450575877
30
0
10
-18.87445873830929
20
-21.456072894570148
30
0
10
-18.784332009900034
20
-22.13186070010822
30
0
10
-18.624268316414181
20
-22.783452881875007
30
0
10
-18.375098584487805
20
-23.404489405264272
30
0
10
-18.031755843496327
20
-23.990578064177733
30
0
10
-17.599878197596254
20
-24.538050735852455
30
0
10
-17.092333213003442
20
-25.042702392458605
30
0
10
-16.525771914655969
20
-25.498536623781224
30
0
10
-15.917170654492477
20
-25.896507940915697
30
0
10
-15.280378217736226
20
-26.223266075345212
30
0
10
-14.62624304356153
20
-26.464827925139851
30
0
10
-13.962740720346451
20
-26.610255093496026
30
0
10
-13.295102169128981
20
-26.655318899606677
30
0
10
-12.625938868708603
20
-26.606195561812708
30
0
10
-11.955375966487949
20
-26.483081311454551
30
0
10
-11.282050340811098
20
-26.315231269320169
30
0
10
-10.604100352451731
20
-26.136078977266234
30
0
10
-9.9201591436853445
20
-25.978323794251473
30
0
10
-9.2303452659453953
20
-25.869037857548335
30
0
10
-8.5372578156975258
20
-25.824748044923602
30
0
10
-7.8455325330582513
20
-25.853687894332168
30
0
10
-7.1613942131749955
20
-25.958067581075937
30
0
10
-6.4922105772369516
20
-26.136336748983094
30
0
10
-5.8460456845475752
20
-26.385450075828611
30
0
10
-5.2312134658574863
20
-26.703131367267915
30
0
10
-4.6545857465587286
20
-27.086304283803461
30
0
10
-4.1198993064382927
20
-27.529521948290906
30
0
10
-3.6260649188050036
20
-28.023398496574565
30
0
10
-3.165471006248942
20
-28.553035702788364
30
0
10
-2.7223008992902633
20
-29.096462051768981
30
0
10
-2.2762286481295959
20
-29.628026600221368
30
0
10
-1.8060964874249725
20
-30.121775257696459
30
0
10
-1.2936059642614117
20
-30.554841327688827
30
0
10
-0.72698730706649095
20
-30.910812135493874
30
0
10
-0.10472292446423144
20
-31.183156021128582
30
0
10
0.56646979300320688
20
-31.37221940541442
30
0
10
1.273709112246977
20
-31.48216371502992
30
0
10
1.9999994696271528
20
-31.517924979099906
30
0
10
2.726289902944834
20
-31.482163692685159
30
0
10
3.4335294186544978
20
-31.372219373392408
30
0
10
4.104722384005969
20
-31.183156006683241
30
0
10
4.7269869841364685
20
-30.910812176879411
30
0
10
5.2936057588150174
20
-30.554841467586236
30
0
10
5.8060962673682512
20
-30.121775533127778
30
0
10
6.2762283103544858
20
-29.628027027678453
30
0
10
6.7223004049120032
20
-29.096462618321858
30
0
10
7.1654703916474602
20
-28.553036364519663
30
0
10
7.6260642826441689
20
-28.023399184562198
30
0
10
8.1198987708145509
20
-27.529522580361014
30
0
10
8.6545853979654463
20
-27.086304787465014
30
0
10
9.2312133237452958
20
-26.703131697677833
30
0
10
9.8460456915407963
20
-26.385450223165581
30
0
10
10.492210613206481
20
-26.13633673729586
30
0
10
11.161394132229891
20
-25.958067457767449
30
0
10
11.845532223876612
20
-25.853687710556635
30
0
10
12.537257237634464
20
-25.824747842351286
30
0
10
13.230344461095036
20
-25.869037661025061
30
0
10
13.92015822463145
20
-25.978323611583754
30
0
10
14.604099466272835
20
-26.136078803167546
30
0
10
15.282049607839316
20
-26.31523110155667
30
0
10
15.955375441969167
20
-26.483081164172752
30
0
10
16.625938528784509
20
-26.606195468329531
30
0
10
17.295101920689724
20
-26.655318907185634
30
0
10
17.962740434764772
20
-26.610255249828633
30
0
10
18.62624261481233
20
-26.464828254500887
30
0
10
19.280377598775857
20
-26.223266564628727
30
0
10
19.917169870899723
20
-25.896508537849485
30
0
10
20.525771056494662
20
-25.498537247271919
30
0
10
21.092332403143118
20
-25.042702953236248
30
0
10
21.599877540992196
20
-24.538051173320696
30
0
10
22.031755397766073
20
-23.990578370163199
30
0
10
22.375098347558019
20
-23.404489628558451
30
0
10
22.624268232434165
20
-22.783453115812758
30
0
10
22.784331993764589
20
-22.131861052283867
30
0
10
22.874458716296097
20
-21.4560734389309
30
0
10
22.922892901046161
20
-20.763834199516424
30
0
10
22.962007014018614
20
-20.063704342538976
30
0
10
23.023322375895585
20
-19.364488566676357
30
0
10
23.132549484832285
20
-18.674665371533255
30
0
10
23.304603170644661
20
-18.001813730833589
30
0
10
23.545881470779474
20
-17.352886798575248
30
0
10
23.85656281937279
20
-16.73448768847458
30
0
10
24.232895989027703
20
-16.153144433374401
30
0
10
24.669492774829482
20
-15.615585353101931
30
0
10
25.161619241422329
20
-15.129014082938459
30
0
10
25.70422610525226
20
-14.699015476016646
30
0
10
26.290978349859252
20
-14.327460243498942
30
0
10
26.913286077535226
20
-14.010412077712092
30
0
10
27.559332340262767
20
-13.7360281333827
30
0
10
28.213108605036552
20
-13.482476292358365
30
0
10
28.856500439001522
20
-13.222498850232654
30
0
10
29.471362144365081
20
-12.927953321384448
30
0
10
30.041600733331201
20
-12.574370645105429
30
0
10
30.555243884107949
20
-12.145485308039301
30
0
10
31.006548580432231
20
-11.6378356010825
30
0
10
31.393768500248175
20
-11.057917192203634
30
0
10
31.716880721074261
20
-10.419267289162535
30
0
10
31.975327767580389
20
-9.7395749503914466
30
0
10
32.165752849852034
20
-9.0377808558186832
30
0
10
32.279738618007173
20
-8.3311814427249047
30
0
10
32.307338703904342
20
-7.6344152060089998
30
0
10
32.240614666334679
20
-6.9584475314727126
30
0
10
32.077161234358499
20
-6.3095600548885908
30
0
10
31.823659332004496
20
-5.688327883757478
30
0
10
31.499355389368631
20
-5.0886290616254017
30
0
10
31.131651451953225
20
-4.5001268532629508
30
0
10
30.751769429448839
20
-3.9107192019370944
30
0
10
30.390385877998654
20
-3.3090014910789161
30
0
10
30.073284564590381
20
-2.6867207193106424
30
0
10
29.816986648954593
20
-2.04124168816851
30
0
10
29.630755213587349
20
-1.3744289453465488
30
0
10
29.541043704619852
20
-0.82810150195136067
30
0
10
29.507462518872117
20
-0.41448125930932656
30
0
10
29.50000001411027
20
-0.13816041738932228
30
0
10
29.5
20
0
30
0
0
CIRCLE
5
101
100
AcDbEntity
8
0
100
AcDbCircle
10
2
20
0
30
0
40
7.5
210
0
220
0
230
1
0
ENDSEC
0
SECTION
2
OBJECTS
0
DICTIONARY
5
C
100
AcDbDictionary
3
ACAD_GROUP
350
D
3
ACAD_MLINESTYLE
350
17
0
DICTIONARY
5
D
100
AcDbDictionary
0
DICTIONARY
5
1A
330
C
100
AcDbDictionary
0
DICTIONARY
5
17
100
AcDbDictionary
0
ENDSEC
0
EOF
