0
SECTION
2
HEADER
9
$INSUNITS
70
4
9
$ACADVER
1
AC1014
9
$HANDSEED
5
FFFF
0
ENDSEC
0
SECTION
2
TABLES
0
TABLE
2
VPORT
5
8
100
AcDbSymbolTable
0
ENDTAB
0
TABLE
2
LTYPE
5
5
100
AcDbSymbolTable
0
LTYPE
5
14
100
AcDbSymbolTableRecord
100
AcDbLinetypeTableRecord
2
BYBLOCK
70
0
0
LTYPE
5
15
100
AcDbSymbolTableRecord
100
AcDbLinetypeTableRecord
2
BYLAYER
70
0
0
ENDTAB
0
TABLE
2
LAYER
5
2
100
AcDbSymbolTable
70
2
0
LAYER
5
50
100
AcDbSymbolTableRecord
100
AcDbLayerTableRecord
2
0
70
0
6
CONTINUOUS
0
ENDTAB
0
TABLE
2
STYLE
5
3
100
AcDbSymbolTable
70
1
0
STYLE
5
11
100
AcDbSymbolTableRecord
100
AcDbTextStyleTableRecord
2
STANDARD
70
0
0
ENDTAB
0
TABLE
2
VIEW
5
6
100
AcDbSymbolTable
70
0
0
ENDTAB
0
TABLE
2
UCS
5
7
100
AcDbSymbolTable
70
0
0
ENDTAB
0
TABLE
2
APPID
5
9
100
AcDbSymbolTable
70
2
0
APPID
5
12
100
AcDbSymbolTableRecord
100
AcDbRegAppTableRecord
2
ACAD
70
0
0
ENDTAB
0
TABLE
2
DIMSTYLE
5
A
100
AcDbSymbolTable
70
1
0
ENDTAB
0
TABLE
2
BLOCK_RECORD
5
1
100
AcDbSymbolTable
70
1
0
BLOCK_RECORD
5
1F
100
AcDbSymbolTableRecord
100
AcDbBlockTableRecord
2
*MODEL_SPACE
0
BLOCK_RECORD
5
1B
100
AcDbSymbolTableRecord
100
AcDbBlockTableRecord
2
*PAPER_SPACE
0
ENDTAB
0
ENDSEC
0
SECTION
2
BLOCKS
0
BLOCK
5
20
100
AcDbEntity
100
AcDbBlockBegin
2
*MODEL_SPACE
0
ENDBLK
5
21
100
AcDbEntity
100
AcDbBlockEnd
0
BLOCK
5
1C
100
AcDbEntity
100
AcDbBlockBegin
2
*PAPER_SPACE
0
ENDBLK
5
1D
100
AcDbEntity
100
AcDbBlockEnd
0
ENDSEC
0
SECTION
2
ENTITIES
0
SPLINE
5
100
100
AcDbEntity
8
0
100
AcDbSpline
70
6
71
5
72
311
73
305
74
0
42
0.000000001
43
0.0000000001
44
0.0000000001
40
0
40
0
40
0
40
0
40
0
40
0
40
0.0033333333333333335
40
0.0066666666666666671
40
0.01
40
0.013333333333333334
40
0.016666666666666666
40
0.02
40
0.023333333333333334
40
0.026666666666666668
40
0.030000000000000002
40
0.033333333333333333
40
0.036666666666666667
40
0.040000000000000001
40
0.043333333333333335
40
0.046666666666666669
40
0.050000000000000003
40
0.053333333333333337
40
0.056666666666666671
40
0.060000000000000005
40
0.063333333333333339
40
0.066666666666666666
40
0.069999999999999993
40
0.07333333333333332
40
0.076666666666666647
40
0.079999999999999974
40
0.083333333333333301
40
0.086666666666666628
40
0.089999999999999955
40
0.093333333333333282
40
0.096666666666666609
40
0.099999999999999936
40
0.10333333333333326
40
0.10666666666666659
40
0.10999999999999992
40
0.11333333333333324
40
0.11666666666666657
40
0.1199999999999999
40
0.12333333333333323
40
0.12666666666666657
40
0.12999999999999989
40
0.13333333333333322
40
0.13666666666666655
40
0.13999999999999987
40
0.1433333333333332
40
0.14666666666666653
40
0.14999999999999986
40
0.15333333333333318
40
0.15666666666666651
40
0.15999999999999984
40
0.16333333333333316
40
0.16666666666666649
40
0.16999999999999982
40
0.17333333333333314
40
0.17666666666666647
40
0.1799999999999998
40
0.18333333333333313
40
0.18666666666666645
40
0.18999999999999978
40
0.19333333333333311
40
0.19666666666666643
40
0.19999999999999976
40
0.20333333333333309
40
0.20666666666666642
40
0.20999999999999974
40
0.21333333333333307
40
0.2166666666666664
40
0.21999999999999972
40
0.22333333333333305
40
0.22666666666666638
40
0.2299999999999997
40
0.23333333333333303
40
0.23666666666666636
40
0.23999999999999969
40
0.24333333333333301
40
0.24666666666666634
40
0.24999999999999967
40
0.25333333333333302
40
0.25666666666666638
40
0.25999999999999973
40
0.26333333333333309
40
0.26666666666666644
40
0.2699999999999998
40
0.27333333333333315
40
0.27666666666666651
40
0.27999999999999986
40
0.28333333333333321
40
0.28666666666666657
40
0.28999999999999992
40
0.29333333333333328
40
0.29666666666666663
40
0.29999999999999999
40
0.30333333333333334
40
0.3066666666666667
40
0.31000000000000005
40
0.31333333333333341
40
0.31666666666666676
40
0.32000000000000012
40
0.32333333333333347
40
0.32666666666666683
40
0.33000000000000018
40
0.33333333333333354
40
0.33666666666666689
40
0.34000000000000025
40
0.3433333333333336
40
0.34666666666666696
40
0.35000000000000031
40
0.35333333333333367
40
0.35666666666666702
40
0.36000000000000038
40
0.36333333333333373
40
0.36666666666666708
40
0.37000000000000044
40
0.37333333333333379
40
0.37666666666666715
40
0.3800000000000005
40
0.38333333333333386
40
0.38666666666666721
40
0.39000000000000057
40
0.39333333333333392
40
0.39666666666666728
40
0.40000000000000063
40
0.40333333333333399
40
0.40666666666666734
40
0.4100000000000007
40
0.41333333333333405
40
0.41666666666666741
40
0.42000000000000076
40
0.42333333333333412
40
0.42666666666666747
40
0.43000000000000083
40
0.43333333333333418
40
0.43666666666666754
40
0.44000000000000089
40
0.44333333333333425
40
0.4466666666666676
40
0.45000000000000095
40
0.45333333333333431
40
0.45666666666666766
40
0.46000000000000102
40
0.46333333333333437
40
0.46666666666666773
40
0.47000000000000108
40
0.47333333333333444
40
0.47666666666666779
40
0.48000000000000115
40
0.4833333333333345
40
0.48666666666666786
40
0.49000000000000121
40
0.49333333333333457
40
0.49666666666666792
40
0.50000000000000122
40
0.50333333333333452
40
0.50666666666666782
40
0.51000000000000112
40
0.51333333333333442
40
0.51666666666666772
40
0.52000000000000102
40
0.52333333333333432
40
0.52666666666666762
40
0.53000000000000091
40
0.53333333333333421
40
0.53666666666666751
40
0.54000000000000081
40
0.54333333333333411
40
0.54666666666666741
40
0.55000000000000071
40
0.55333333333333401
40
0.55666666666666731
40
0.56000000000000061
40
0.56333333333333391
40
0.56666666666666721
40
0.57000000000000051
40
0.57333333333333381
40
0.5766666666666671
40
0.5800000000000004
40
0.5833333333333337
40
0.586666666666667
40
0.5900000000000003
40
0.5933333333333336
40
0.5966666666666669
40
0.6000000000000002
40
0.6033333333333335
40
0.6066666666666668
40
0.6100000000000001
40
0.6133333333333334
40
0.6166666666666667
40
0.62
40
0.62333333333333329
40
0.62666666666666659
40
0.62999999999999989
40
0.63333333333333319
40
0.63666666666666649
40
0.63999999999999979
40
0.64333333333333309
40
0.64666666666666639
40
0.64999999999999969
40
0.65333333333333299
40
0.65666666666666629
40
0.65999999999999959
40
0.66333333333333289
40
0.66666666666666619
40
0.66999999999999948
40
0.67333333333333278
40
0.67666666666666608
40
0.67999999999999938
40
0.68333333333333268
40
0.68666666666666598
40
0.68999999999999928
40
0.69333333333333258
40
0.69666666666666588
40
0.69999999999999918
40
0.70333333333333248
40
0.70666666666666578
40
0.70999999999999908
40
0.71333333333333238
40
0.71666666666666567
40
0.71999999999999897
40
0.72333333333333227
40
0.72666666666666557
40
0.72999999999999887
40
0.73333333333333217
40
0.73666666666666547
40
0.73999999999999877
40
0.74333333333333207
40
0.74666666666666537
40
0.74999999999999867
40
0.75333333333333197
40
0.75666666666666527
40
0.75999999999999857
40
0.76333333333333186
40
0.76666666666666516
40
0.76999999999999846
40
0.77333333333333176
40
0.77666666666666506
40
0.77999999999999836
40
0.78333333333333166
40
0.78666666666666496
40
0.78999999999999826
40
0.79333333333333156
40
0.79666666666666486
40
0.79999999999999816
40
0.80333333333333146
40
0.80666666666666476
40
0.80999999999999805
40
0.81333333333333135
40
0.81666666666666465
40
0.81999999999999795
40
0.82333333333333125
40
0.82666666666666455
40
0.82999999999999785
40
0.83333333333333115
40
0.83666666666666445
40
0.83999999999999775
40
0.84333333333333105
40
0.84666666666666435
40
0.84999999999999765
40
0.85333333333333095
40
0.85666666666666424
40
0.85999999999999754
40
0.86333333333333084
40
0.86666666666666414
40
0.86999999999999744
40
0.87333333333333074
40
0.87666666666666404
40
0.87999999999999734
40
0.88333333333333064
40
0.88666666666666394
40
0.88999999999999724
40
0.89333333333333054
40
0.89666666666666384
40
0.89999999999999714
40
0.90333333333333043
40
0.90666666666666373
40
0.90999999999999703
40
0.91333333333333033
40
0.91666666666666363
40
0.91999999999999693
40
0.92333333333333023
40
0.92666666666666353
40
0.92999999999999683
40
0.93333333333333013
40
0.93666666666666343
40
0.93999999999999673
40
0.94333333333333003
40
0.94666666666666333
40
0.94999999999999662
40
0.95333333333332992
40
0.95666666666666322
40
0.95999999999999652
40
0.96333333333332982
40
0.96666666666666312
40
0.96999999999999642
40
0.97333333333332972
40
0.97666666666666302
40
0.97999999999999632
40
0.98333333333332962
40
0.98666666666666292
40
0.98999999999999622
40
0.99333333333332952
40
0.99666666666666281
40
1
40
1
40
1
40
1
40
1
40
1
41
1
41
1
41
1
41
1
41
1
41
1
41
1
41
1
41
1
41
1
41
1
41
1
41
1
41
1
41
1
41
1
41
1
41
1
41
1
41
1
41
1
41
1
41
1
41
1
41
1
41
1
41
1
41
1
41
1
41
1
41
1
41
1
41
1
41
1
41
1
41
1
41
1
41
1
41
1
41
1
41
1
41
1
41
1
41
1
41
1
41
1
41
1
41
1
41
1
41
1
41
1
41
1
41
1
41
1
41
1
41
1
41
1
41
1
41
1
41
1
41
1
41
1
41
1
41
1
41
1
41
1
41
1
41
1
41
1
41
1
41
1
41
1
41
1
41
1
41
1
41
1
41
1
41
1
41
1
41
1
41
1
41
1
41
1
41
1
41
1
41
1
41
1
41
1
41
1
41
1
41
1
41
1
41
1
41
1
41
1
41
1
41
1
41
1
41
1
41
1
41
1
41
1
41
1
41
1
41
1
41
1
41
1
41
1
41
1
41
1
41
1
41
1
41
1
41
1
41
1
41
1
41
1
41
1
41
1
41
1
41
1
41
1
41
1
41
1
41
1
41
1
41
1
41
1
41
1
41
1
41
1
41
1
41
1
41
1
41
1
41
1
41
1
41
1
41
1
41
1
41
1
41
1
41
1
41
1
41
1
41
1
41
1
41
1
41
1
41
1
41
1
41
1
41
1
41
1
41
1
41
1
41
1
41
1
41
1
41
1
41
1
41
1
41
1
41
1
41
1
41
1
41
1
41
1
41
1
41
1
41
1
41
1
41
1
41
1
41
1
41
1
41
1
41
1
41
1
41
1
41
1
41
1
41
1
41
1
41
1
41
1
41
1
41
1
41
1
41
1
41
1
41
1
41
1
41
1
41
1
41
1
41
1
41
1
41
1
41
1
41
1
41
1
41
1
41
1
41
1
41
1
41
1
41
1
41
1
41
1
41
1
41
1
41
1
41
1
41
1
41
1
41
1
41
1
41
1
41
1
41
1
41
1
41
1
41
1
41
1
41
1
41
1
41
1
41
1
41
1
41
1
41
1
41
1
41
1
41
1
41
1
41
1
41
1
41
1
41
1
41
1
41
1
41
1
41
1
41
1
41
1
41
1
41
1
41
1
41
1
41
1
41
1
41
1
41
1
41
1
41
1
41
1
41
1
41
1
41
1
41
1
41
1
41
1
41
1
41
1
41
1
41
1
41
1
41
1
41
1
41
1
41
1
41
1
41
1
41
1
41
1
41
1
41
1
41
1
41
1
41
1
41
1
41
1
41
1
41
1
41
1
41
1
41
1
41
1
41
1
41
1
41
1
41
1
41
1
41
1
41
1
41
1
41
1
41
1
41
1
41
1
41
1
41
1
41
1
41
1
10
27.500000000000007
20
0
30
0
10
27.500000000893419
20
0.13237016514590053
30
0
10
27.50656569100056
20
0.39711049460534137
30
0
10
27.536111290969544
20
0.79317900921182716
30
0
10
27.615763239468262
20
1.3150184971384291
30
0
10
27.785622931125651
20
1.9478154029243255
30
0
10
28.026735061869637
20
2.5547016571723455
30
0
10
28.334538042593664
20
3.1332803903014894
30
0
10
28.695668773905449
20
3.6865048213058915
30
0
10
29.084689257755816
20
4.2240125918636977
30
0
10
29.469265711184008
20
4.7592387061732824
30
0
10
29.815328217638193
20
5.3065378507711172
30
0
10
30.092253518620073
20
5.8782959995952355
30
0
10
30.278000944521281
20
6.4820634275782654
30
0
10
30.364371314997921
20
7.1176316068473877
30
0
10
30.353267709199013
20
7.7782083439082603
30
0
10
30.25283044487319
20
8.4516499452731448
30
0
10
30.073619119352198
20
9.1216721644680163
30
0
10
29.824774706275825
20
9.7690692560900807
30
0
10
29.510190892743665
20
10.372930511740051
30
0
10
29.13089645989335
20
10.913874898748334
30
0
10
28.687443664911441
20
11.377293168596726
30
0
10
28.182285251795665
20
11.756571684905513
30
0
10
27.622177062225521
20
12.056361075579636
30
0
10
27.020512406850585
20
12.295724822335901
30
0
10
26.394785695586307
20
12.502683313232261
30
0
10
25.764122560386035
20
12.708875563213123
30
0
10
25.146784652929863
20
12.944176074760591
30
0
10
24.557686864502518
20
13.231333967422671
30
0
10
24.005904313327022
20
13.580593077740502
30
0
10
23.496536261476066
20
13.992695515148233
30
0
10
23.03257459115402
20
14.461894003541161
30
0
10
22.616770427501478
20
14.978960508817099
30
0
10
22.253501524433851
20
15.53419610212919
30
0
10
21.950639305481868
20
16.120440170461798
30
0
10
21.716109993809503
20
16.732224642970685
30
0
10
21.554455015049779
20
17.364928090898395
30
0
10
21.463392810757309
20
18.013930171268633
30
0
10
21.43037654782416
20
18.673765455666505
30
0
10
21.429161589893567
20
19.337278879903756
30
0
10
21.425692459720086
20
19.996334269917295
30
0
10
21.383968542771051
20
20.642519016569629
30
0
10
21.271934809681163
20
21.26785368354501
30
0
10
21.067322043913776
20
21.865491391029835
30
0
10
20.763619538838935
20
22.430444079143946
30
0
10
20.366359268996707
20
22.958335349778956
30
0
10
19.889264773726104
20
23.444125507250551
30
0
10
19.350450586644325
20
23.880847095002721
30
0
10
18.768600764678048
20
24.258335268112056
30
0
10
18.159156372873376
20
24.561961559973277
30
0
10
17.534341597831698
20
24.776651088168681
30
0
10
16.90319032582833
20
24.890909331001705
30
0
10
16.271574266368518
20
24.900827430996063
30
0
10
15.642225439685799
20
24.81413880926743
30
0
10
15.014774028296038
20
24.654138536975587
30
0
10
14.386903336263369
20
24.453778540394264
30
0
10
13.755489378484747
20
24.249897084701708
30
0
10
13.117746349536169
20
24.077397079644793
30
0
10
12.472369052963355
20
23.963449702681729
30
0
10
11.820678237588911
20
23.921676612316197
30
0
10
11.166363092107618
20
23.955675458735804
30
0
10
10.515222264203336
20
24.062555182136332
30
0
10
9.8749055632214606
20
24.236467216889224
30
0
10
9.2546555538158994
20
24.472138143920176
30
0
10
8.6650492541204791
20
24.768401612275397
30
0
10
8.1157131647762721
20
25.125492776798342
30
0
10
7.6130377839671937
20
25.542342206097402
30
0
10
7.1578930615997329
20
26.013870897778453
30
0
10
6.7433408946839588
20
26.528282383907595
30
0
10
6.3523545676054578
20
27.064361885758117
30
0
10
5.9621649436455861
20
27.595509792959092
30
0
10
5.5485917214238478
20
28.093759531455799
30
0
10
5.0903920324162595
20
28.53381412814031
30
0
10
4.5735741969717667
20
28.897044823824935
30
0
10
3.9958028508161139
20
29.175589295959121
30
0
10
3.3641258376305947
20
29.369158577150017
30
0
10
2.6926079927627127
20
29.481741961975402
30
0
10
1.9999996499638686
20
29.518350115385665
30
0
10
1.3073912747499374
20
29.481741718206674
30
0
10
0.63587334808906193
20
29.369158122666732
30
0
10
0.0041962382491243511
20
29.175588689307119
30
0
10
-0.57357517691264825
20
28.897044139856728
30
0
10
-1.0903930158429866
20
28.533813446441805
30
0
10
-1.5485926186255881
20
28.09375891937222
30
0
10
-1.962165673168599
20
27.595509293838219
30
0
10
-2.3523550821531529
20
27.06436151848763
30
0
10
-2.7433411916095878
20
26.528282143520876
30
0
10
-3.1578931810802864
20
26.013870760732214
30
0
10
-3.6130377940751424
20
25.542342139215116
30
0
10
-4.1157131323314342
20
25.12549274887045
30
0
10
-4.6650492252229894
20
24.768401600547566
30
0
10
-5.254655545912871
20
24.472138137324912
30
0
10
-5.8749055680135225
20
24.236467215332272
30
0
10
-6.5152222616871391
20
24.0625551921168
30
0
10
-7.1663630756238925
20
23.955675485208339
30
0
10
-7.8206782277573748
20
23.921676653979752
30
0
10
-8.4723691004540278
20
23.963449750848579
30
0
10
-9.1177465267517785
20
24.077397120288616
30
0
10
-9.7554897599977419
20
24.249897104650984
30
0
10
-10.386903968416339
20
24.453778535080197
30
0
10
-11.014774911867367
20
24.654138511971269
30
0
10
-11.642226525310182
20
24.814138777091994
30
0
10
-12.271575462669816
20
24.900827404457843
30
0
10
-12.903191520644645
20
24.890909308348711
30
0
10
-13.534342691376256
20
24.776651043526918
30
0
10
-14.159157298780425
20
24.561961449037
30
0
10
-14.768601500557555
20
24.258335034780725
30
0
10
-15.35045115301477
20
23.880846683510569
30
0
10
-15.889265223036368
20
23.444124879490932
30
0
10
-16.366359660623555
20
22.958334503470034
30
0
10
-16.763619919218542
20
22.430443052915969
30
0
10
-17.067322434675688
20
21.865490261691804
30
0
10
-17.271935204597881
20
21.267852553995521
30
0
10
-17.383968908849244
20
20.64251799402264
30
0
10
-17.425692756541139
20
19.996333437318775
30
0
10
-17.429161790295591
20
19.337278280333919
30
0
10
-17.430376646746474
20
18.673765086662225
30
0
10
-17.463392826865356
20
18.013929990166897
30
0
10
-17.554454983914741
20
17.364928030846599
30
0
10
-17.716109951145601
20
16.732224639444699
30
0
10
-17.950639275210051
20
16.120440177957015
30
0
10
-18.253501514163737
20
15.534196101437631
30
0
10
-18.616770430463216
20
14.978960504740719
30
0
10
-19.032574594984951
20
14.461894013095307
30
0
10
-19.49653626370106
20
13.992695546254845
30
0
10
-20.005904329862958
20
13.580593117226547
30
0
10
-20.557686931235509
20
13.231333978476467
30
0
10
-21.14678482019027
20
12.944176003477303
30
0
10
-21.764122880762244
20
12.708875355104361
30
0
10
-22.394786203884898
20
12.502682937362465
30
0
10
-23.020513106977248
20
12.295724282756401
30
0
10
-23.622177921601654
20
12.056360411434916
30
0
10
-24.182286204025083
20
11.756570960267315
30
0
10
-24.687444618223541
20
11.377292447974696
30
0
10
-25.130897318350478
20
10.913874219863013
30
0
10
-25.510191576612236
20
10.372929877756167
30
0
10
-25.824775164466644
20
9.7690686347818154
30
0
10
-26.073619335686526
20
9.1216714986595377
30
0
10
-26.252830439384667
20
8.4516491733067909
30
0
10
-26.353267528583523
20
7.7782074290371899
30
0
10
-26.364371019529699
20
7.1176305530295947
30
0
10
-26.278000596846173
20
6.4820622842401177
30
0
10
-26.092253174181895
20
5.8782948536441264
30
0
10
-25.815327912763223
20
5.3065368083380466
30
0
10
-25.469265461926987
20
4.7592378581202448
30
0
10
-25.084689067465384
20
4.2240119890084875
30
0
10
-24.695668637038104
20
3.6865044646301905
30
0
10
-24.334537949178639
20
3.1332802343188404
30
0
10
-24.026735001378672
20
2.5547016268899654
30
0
10
-23.785622894552091
20
1.9478154251488844
30
0
10
-23.615763219355308
20
1.3150185209957783
30
0
10
-23.516198295201271
20
0.66271914270703125
30
0
10
-23.483729726729639
20
-2.5194970589004217e-09
30
0
10
-23.516198303916024
20
-0.66271913723000242
30
0
10
-23.615763239438973
20
-1.315018497138922
30
0
10
-23.785622931139038
20
-1.947815402924729
30
0
10
-24.026735061864013
20
-2.5547016571727688
30
0
10
-24.334538042596073
20
-3.1332803903016471
30
0
10
-24.695668773904814
20
-3.686504821305856
30
0
10
-25.084689257757002
20
-4.2240125918635725
30
0
10
-25.469265711184697
20
-4.7592387061731545
30
0
10
-25.815328217638903
20
-5.3065378507710994
30
0
10
-26.092253518620122
20
-5.8782959995953572
30
0
10
-26.278000944520755
20
-6.4820634275786482
30
0
10
-26.364371314997015
20
-7.1176316068480583
30
0
10
-26.353267709198036
20
-7.7782083439090188
30
0
10
-26.25283044487254
20
-8.4516499452736795
30
0
10
-26.073619119352145
20
-9.1216721644681513
30
0
10
-25.82477470627639
20
-9.7690692560898142
30
0
10
-25.510190892744582
20
-10.372930511739579
30
0
10
-25.130896459894217
20
-10.913874898747922
30
0
10
-24.687443664911882
20
-11.377293168596525
30
0
10
-24.182285251795534
20
-11.75657168490557
30
0
10
-23.622177062224967
20
-12.056361075579964
30
0
10
-23.020512406849715
20
-12.295724822336213
30
0
10
-22.394785695585455
20
-12.502683313232412
30
0
10
-21.764122560385427
20
-12.70887556321302
30
0
10
-21.146784652929782
20
-12.944176074760536
30
0
10
-20.557686864503012
20
-13.231333967423005
30
0
10
-20.0059043133278
20
-13.580593077741213
30
0
10
-19.496536261476834
20
-13.992695515149158
30
0
10
-19.032574591154525
20
-14.461894003541859
30
0
10
-18.616770427501454
20
-14.97896050881717
30
0
10
-18.253501524433325
20
-15.534196102128469
30
0
10
-17.950639305481062
20
-16.120440170460434
30
0
10
-17.716109993808615
20
-16.732224642969214
30
0
10
-17.554455015049101
20
-17.364928090897401
30
0
10
-17.463392810757306
20
-18.01393017126864
30
0
10
-17.430376547824864
20
-18.673765455667507
30
0
10
-17.429161589894662
20
-19.337278879905373
30
0
10
-17.425692459721084
20
-19.996334269918837
30
0
10
-17.383968542771658
20
-20.642519016570535
30
0
10
-17.271934809681138
20
-21.267853683544974
30
0
10
-17.067322043913261
20
-21.865491391029003
30
0
10
-16.763619538838256
20
-22.430444079142774
30
0
10
-16.366359268996167
20
-22.958335349777972
30
0
10
-15.889264773725884
20
-23.444125507250142
30
0
10
-15.350450586644385
20
-23.880847095002736
30
0
10
-14.768600764678299
20
-24.258335268112262
30
0
10
-14.159156372873893
20
-24.56196155997354
30
0
10
-13.534341597832372
20
-24.776651088168897
30
0
10
-12.903190325828914
20
-24.890909331001808
30
0
10
-12.271574266368614
20
-24.900827430996056
30
0
10
-11.642225439685239
20
-24.81413880926738
30
0
10
-11.014774028295056
20
-24.654138536975616
30
0
10
-10.386903336262431
20
-24.453778540394374
30
0
10
-9.755489378484226
20
-24.249897084701807
30
0
10
-9.1177463495362883
20
-24.077397079644829
30
0
10
-8.4723690529640585
20
-23.963449702681633
30
0
10
-7.8206782375900774
20
-23.921676612315888
30
0
10
-7.166363092108905
20
-23.955675458735378
30
0
10
-6.5152222642042998
20
-24.062555182136009
30
0
10
-5.8749055632216285
20
-24.236467216889203
30
0
10
-5.2546555538150352
20
-24.472138143920368
30
0
10
-4.6650492541188662
20
-24.768401612275788
30
0
10
-4.1157131647746148
20
-25.125492776798687
30
0
10
-3.613037783966266
20
-25.542342206097544
30
0
10
-3.1578930615998519
20
-26.013870897778268
30
0
10
-2.743340894685069
20
-26.528282383907353
30
0
10
-2.3523545676070237
20
-27.064361885758025
30
0
10
-1.9621649436470279
20
-27.595509792959056
30
0
10
-1.5485917214247504
20
-28.093759531455568
30
0
10
-1.0903920324164087
20
-28.533814128140133
30
0
10
-0.57357419697118506
20
-28.897044823825098
30
0
10
0.0041971491849272539
20
-29.175589295959703
30
0
10
0.63587416237041605
20
-29.369158577150877
30
0
10
1.307392007237786
20
-29.481741961976006
30
0
10
2.0000003500358545
20
-29.518350115385669
30
0
10
2.6926087252491997
20
-29.481741718206035
30
0
10
3.364126651909876
20
-29.36915812266583
30
0
10
3.9958037617499418
20
-29.17558868930638
30
0
10
4.5735751769120858
20
-28.897044139856476
30
0
10
5.0903930158428317
20
-28.533813446442018
30
0
10
5.5485926186257064
20
-28.093758919372721
30
0
10
5.962165673168812
20
-27.595509293838937
30
0
10
6.3523550821533172
20
-27.064361518488347
30
0
10
6.743341191609562
20
-26.528282143521405
30
0
10
7.1578931810800448
20
-26.013870760732473
30
0
10
7.6130377940747582
20
-25.542342139215123
30
0
10
8.1157131323309333
20
-25.125492748870375
30
0
10
8.6650492252224272
20
-24.768401600547456
30
0
10
9.2546555459123763
20
-24.472138137324897
30
0
10
9.8749055680131281
20
-24.23646721533234
30
0
10
10.515222261686896
20
-24.062555192117191
30
0
10
11.166363075623806
20
-23.95567548520901
30
0
10
11.820678227757323
20
-23.921676653980573
30
0
10
12.472369100453832
20
-23.963449750849154
30
0
10
13.117746526751334
20
-24.077397120288499
30
0
10
13.755489759997122
20
-24.249897104650255
30
0
10
14.386903968415648
20
-24.453778535079074
30
0
10
15.014774911866734
20
-24.654138511970238
30
0
10
15.642226525309672
20
-24.81413877709144
30
0
10
16.271575462669318
20
-24.900827404457853
30
0
10
16.903191520644153
20
-24.89090930834908
30
0
10
17.534342691375755
20
-24.776651043527387
30
0
10
18.159157298779917
20
-24.561961449037394
30
0
10
18.768601500557029
20
-24.258335034781034
30
0
10
19.350451153014291
20
-23.880846683510907
30
0
10
19.889265223035959
20
-23.444124879491376
30
0
10
20.366359660623242
20
-22.958334503470482
30
0
10
20.763619919218215
20
-22.430443052916441
30
0
10
21.067322434675422
20
-21.865490261692319
30
0
10
21.271935204597735
20
-21.267852553996114
30
0
10
21.383968908849237
20
-20.642517994023201
30
0
10
21.425692756541249
20
-19.99633343731929
30
0
10
21.429161790295794
20
-19.337278280334399
30
0
10
21.430376646746598
20
-18.673765086662744
30
0
10
21.463392826865309
20
-18.013929990167536
30
0
10
21.554454983914432
20
-17.36492803084743
30
0
10
21.716109951145089
20
-16.732224639445686
30
0
10
21.95063927520949
20
-16.120440177957967
30
0
10
22.253501514163283
20
-15.534196101438438
30
0
10
22.616770430462815
20
-14.978960504741309
30
0
10
23.032574594984482
20
-14.461894013095728
30
0
10
23.496536263700506
20
-13.992695546255307
30
0
10
24.005904329862261
20
-13.580593117227036
30
0
10
24.55768693123478
20
-13.23133397847689
30
0
10
25.146784820189573
20
-12.944176003477612
30
0
10
25.764122880761647
20
-12.708875355104519
30
0
10
26.394786203884465
20
-12.502682937362561
30
0
10
27.020513106976924
20
-12.295724282756568
30
0
10
27.622177921601327
20
-12.056360411435239
30
0
10
28.182286204024471
20
-11.756570960267743
30
0
10
28.687444618222464
20
-11.377292447975174
30
0
10
29.130897318349064
20
-10.913874219863512
30
0
10
29.510191576610801
20
-10.372929877756661
30
0
10
29.824775164465535
20
-9.7690686347824158
30
0
10
30.073619335686207
20
-9.121671498660378
30
0
10
30.252830439385296
20
-8.4516491733079704
30
0
10
30.353267528584812
20
-7.7782074290386047
30
0
10
30.364371019531124
20
-7.1176305530310557
30
0
10
30.278000596847132
20
-6.4820622842413709
30
0
10
30.09225317418224
20
-5.878294853644956
30
0
10
29.815327912762847
20
-5.3065368083383655
30
0
10
29.469265461926444
20
-4.7592378581201524
30
0
10
29.084689067464204
20
-4.224011989008341
30
0
10
28.695668637038835
20
-3.6865044646304317
30
0
10
28.334537949176767
20
-3.1332802343196779
30
0
10
28.026735001385493
20
-2.5547016268914406
30
0
10
27.785622894540833
20
-1.9478154251505255
30
0
10
27.61576321938719
20
-1.3150185209973437
30
0
10
27.536111279983086
20
-0.79317901836549243
30
0
10
27.506565685640119
20
-0.39711049627036632
30
0
10
27.499999999106599
20
-0.13237016514605346
30
0
10
27.500000000000007
20
0
30
0
0
CIRCLE
5
101
100
AcDbEntity
8
0
100
AcDbCircle
10
2
20
0
30
0
40
7.5
210
0
220
0
230
1
0
ENDSEC
0
SECTION
2
OBJECTS
0
DICTIONARY
5
C
100
AcDbDictionary
3
ACAD_GROUP
350
D
3
ACAD_MLINESTYLE
350
17
0
DICTIONARY
5
D
100
AcDbDictionary
0
DICTIONARY
5
1A
330
C
100
AcDbDictionary
0
DICTIONARY
5
17
100
AcDbDictionary
0
ENDSEC
0
EOF
