0
SECTION
2
HEADER
9
$INSUNITS
70
4
9
$ACADVER
1
AC1014
9
$HANDSEED
5
FFFF
0
ENDSEC
0
SECTION
2
TABLES
0
TABLE
2
VPORT
5
8
100
AcDbSymbolTable
0
ENDTAB
0
TABLE
2
LTYPE
5
5
100
AcDbSymbolTable
0
LTYPE
5
14
100
AcDbSymbolTableRecord
100
AcDbLinetypeTableRecord
2
BYBLOCK
70
0
0
LTYPE
5
15
100
AcDbSymbolTableRecord
100
AcDbLinetypeTableRecord
2
BYLAYER
70
0
0
LTYPE
5
16
100
AcDbSymbolTableRecord
100
AcDbLinetypeTableRecord
2
DASHED
70
0
3
Dashed __ __ __ __ __ __ __ __ __ __ __ __ __ _
72
65
73
2
40
0.75
49
0.5
74
0
49
-0.25
74
0
0
ENDTAB
0
TABLE
2
LAYER
5
2
100
AcDbSymbolTable
70
3
0
LAYER
5
50
100
AcDbSymbolTableRecord
100
AcDbLayerTableRecord
2
1
70
0
62
7
6
DASHED
0
LAYER
5
51
100
AcDbSymbolTableRecord
100
AcDbLayerTableRecord
2
0
70
0
62
7
6
CONTINUOUS
0
ENDTAB
0
TABLE
2
STYLE
5
3
100
AcDbSymbolTable
70
1
0
STYLE
5
11
100
AcDbSymbolTableRecord
100
AcDbTextStyleTableRecord
2
STANDARD
70
0
0
ENDTAB
0
TABLE
2
VIEW
5
6
100
AcDbSymbolTable
70
0
0
ENDTAB
0
TABLE
2
UCS
5
7
100
AcDbSymbolTable
70
0
0
ENDTAB
0
TABLE
2
APPID
5
9
100
AcDbSymbolTable
70
2
0
APPID
5
12
100
AcDbSymbolTableRecord
100
AcDbRegAppTableRecord
2
ACAD
70
0
0
ENDTAB
0
TABLE
2
DIMSTYLE
5
A
100
AcDbSymbolTable
70
1
0
ENDTAB
0
TABLE
2
BLOCK_RECORD
5
1
100
AcDbSymbolTable
70
1
0
BLOCK_RECORD
5
1F
100
AcDbSymbolTableRecord
100
AcDbBlockTableRecord
2
*MODEL_SPACE
0
BLOCK_RECORD
5
1B
100
AcDbSymbolTableRecord
100
AcDbBlockTableRecord
2
*PAPER_SPACE
0
ENDTAB
0
ENDSEC
0
SECTION
2
BLOCKS
0
BLOCK
5
20
100
AcDbEntity
100
AcDbBlockBegin
2
*MODEL_SPACE
0
ENDBLK
5
21
100
AcDbEntity
100
AcDbBlockEnd
0
BLOCK
5
1C
100
AcDbEntity
100
AcDbBlockBegin
2
*PAPER_SPACE
0
ENDBLK
5
1D
100
AcDbEntity
100
AcDbBlockEnd
0
ENDSEC
0
SECTION
2
ENTITIES
0
POINT
5
100
100
AcDbEntity
8
0
100
AcDbPoint
10
0
20
0
30
0
0
POINT
5
101
100
AcDbEntity
8
0
100
AcDbPoint
10
2
20
0
30
0
0
SPLINE
5
102
100
AcDbEntity
8
0
100
AcDbSpline
70
6
71
5
72
341
73
335
74
0
42
0.000000001
43
0.0000000001
44
0.0000000001
40
0
40
0
40
0
40
0
40
0
40
0
40
0.0030303030303030303
40
0.0060606060606060606
40
0.0090909090909090905
40
0.012121212121212121
40
0.015151515151515152
40
0.018181818181818181
40
0.02121212121212121
40
0.024242424242424239
40
0.027272727272727268
40
0.030303030303030297
40
0.033333333333333326
40
0.036363636363636355
40
0.039393939393939384
40
0.042424242424242413
40
0.045454545454545442
40
0.048484848484848471
40
0.0515151515151515
40
0.054545454545454529
40
0.057575757575757558
40
0.060606060606060587
40
0.063636363636363616
40
0.066666666666666652
40
0.069696969696969688
40
0.072727272727272724
40
0.07575757575757576
40
0.078787878787878796
40
0.081818181818181832
40
0.084848484848484867
40
0.087878787878787903
40
0.090909090909090939
40
0.093939393939393975
40
0.096969696969697011
40
0.10000000000000005
40
0.10303030303030308
40
0.10606060606060612
40
0.10909090909090915
40
0.11212121212121219
40
0.11515151515151523
40
0.11818181818181826
40
0.1212121212121213
40
0.12424242424242433
40
0.12727272727272737
40
0.13030303030303039
40
0.13333333333333341
40
0.13636363636363644
40
0.13939393939393946
40
0.14242424242424248
40
0.1454545454545455
40
0.14848484848484853
40
0.15151515151515155
40
0.15454545454545457
40
0.15757575757575759
40
0.16060606060606061
40
0.16363636363636364
40
0.16666666666666666
40
0.16969696969696968
40
0.1727272727272727
40
0.17575757575757572
40
0.17878787878787875
40
0.18181818181818177
40
0.18484848484848479
40
0.18787878787878781
40
0.19090909090909083
40
0.19393939393939386
40
0.19696969696969688
40
0.1999999999999999
40
0.20303030303030292
40
0.20606060606060594
40
0.20909090909090897
40
0.21212121212121199
40
0.21515151515151501
40
0.21818181818181803
40
0.22121212121212105
40
0.22424242424242408
40
0.2272727272727271
40
0.23030303030303012
40
0.23333333333333314
40
0.23636363636363616
40
0.23939393939393919
40
0.24242424242424221
40
0.24545454545454523
40
0.24848484848484825
40
0.2515151515151513
40
0.25454545454545435
40
0.2575757575757574
40
0.26060606060606045
40
0.2636363636363635
40
0.26666666666666655
40
0.2696969696969696
40
0.27272727272727265
40
0.2757575757575757
40
0.27878787878787875
40
0.2818181818181818
40
0.28484848484848485
40
0.2878787878787879
40
0.29090909090909095
40
0.293939393939394
40
0.29696969696969705
40
0.3000000000000001
40
0.30303030303030315
40
0.3060606060606062
40
0.30909090909090925
40
0.3121212121212123
40
0.31515151515151535
40
0.3181818181818184
40
0.32121212121212145
40
0.3242424242424245
40
0.32727272727272755
40
0.3303030303030306
40
0.33333333333333365
40
0.3363636363636367
40
0.33939393939393975
40
0.3424242424242428
40
0.34545454545454585
40
0.3484848484848489
40
0.35151515151515195
40
0.354545454545455
40
0.35757575757575805
40
0.3606060606060611
40
0.36363636363636415
40
0.3666666666666672
40
0.36969696969697025
40
0.3727272727272733
40
0.37575757575757635
40
0.3787878787878794
40
0.38181818181818244
40
0.38484848484848549
40
0.38787878787878854
40
0.39090909090909159
40
0.39393939393939464
40
0.39696969696969769
40
0.40000000000000074
40
0.40303030303030379
40
0.40606060606060684
40
0.40909090909090989
40
0.41212121212121294
40
0.41515151515151599
40
0.41818181818181904
40
0.42121212121212209
40
0.42424242424242514
40
0.42727272727272819
40
0.43030303030303124
40
0.43333333333333429
40
0.43636363636363734
40
0.43939393939394039
40
0.44242424242424344
40
0.44545454545454649
40
0.44848484848484954
40
0.45151515151515259
40
0.45454545454545564
40
0.45757575757575869
40
0.46060606060606174
40
0.46363636363636479
40
0.46666666666666784
40
0.46969696969697089
40
0.47272727272727394
40
0.47575757575757699
40
0.47878787878788004
40
0.48181818181818309
40
0.48484848484848614
40
0.48787878787878919
40
0.49090909090909224
40
0.49393939393939529
40
0.49696969696969834
40
0.50000000000000133
40
0.50303030303030438
40
0.50606060606060743
40
0.50909090909091048
40
0.51212121212121353
40
0.51515151515151658
40
0.51818181818181963
40
0.52121212121212268
40
0.52424242424242573
40
0.52727272727272878
40
0.53030303030303183
40
0.53333333333333488
40
0.53636363636363793
40
0.53939393939394098
40
0.54242424242424403
40
0.54545454545454708
40
0.54848484848485013
40
0.55151515151515318
40
0.55454545454545623
40
0.55757575757575928
40
0.56060606060606233
40
0.56363636363636538
40
0.56666666666666843
40
0.56969696969697148
40
0.57272727272727453
40
0.57575757575757758
40
0.57878787878788063
40
0.58181818181818368
40
0.58484848484848673
40
0.58787878787878978
40
0.59090909090909283
40
0.59393939393939588
40
0.59696969696969893
40
0.60000000000000198
40
0.60303030303030503
40
0.60606060606060808
40
0.60909090909091113
40
0.61212121212121418
40
0.61515151515151723
40
0.61818181818182028
40
0.62121212121212332
40
0.62424242424242637
40
0.62727272727272942
40
0.63030303030303247
40
0.63333333333333552
40
0.63636363636363857
40
0.63939393939394162
40
0.64242424242424467
40
0.64545454545454772
40
0.64848484848485077
40
0.65151515151515382
40
0.65454545454545687
40
0.65757575757575992
40
0.66060606060606297
40
0.66363636363636602
40
0.66666666666666907
40
0.66969696969697212
40
0.67272727272727517
40
0.67575757575757822
40
0.67878787878788127
40
0.68181818181818432
40
0.68484848484848737
40
0.68787878787879042
40
0.69090909090909347
40
0.69393939393939652
40
0.69696969696969957
40
0.70000000000000262
40
0.70303030303030567
40
0.70606060606060872
40
0.70909090909091177
40
0.71212121212121482
40
0.71515151515151787
40
0.71818181818182092
40
0.72121212121212397
40
0.72424242424242702
40
0.72727272727273007
40
0.73030303030303312
40
0.73333333333333617
40
0.73636363636363922
40
0.73939393939394227
40
0.74242424242424532
40
0.74545454545454837
40
0.74848484848485142
40
0.75151515151515447
40
0.75454545454545752
40
0.75757575757576057
40
0.76060606060606362
40
0.76363636363636667
40
0.76666666666666972
40
0.76969696969697277
40
0.77272727272727582
40
0.77575757575757887
40
0.77878787878788192
40
0.78181818181818497
40
0.78484848484848801
40
0.78787878787879106
40
0.79090909090909411
40
0.79393939393939716
40
0.79696969696970021
40
0.80000000000000326
40
0.80303030303030631
40
0.80606060606060936
40
0.80909090909091241
40
0.81212121212121546
40
0.81515151515151851
40
0.81818181818182156
40
0.82121212121212461
40
0.82424242424242766
40
0.82727272727273071
40
0.83030303030303376
40
0.83333333333333681
40
0.83636363636363986
40
0.83939393939394291
40
0.84242424242424596
40
0.84545454545454901
40
0.84848484848485206
40
0.85151515151515511
40
0.85454545454545816
40
0.85757575757576121
40
0.86060606060606426
40
0.86363636363636731
40
0.86666666666667036
40
0.86969696969697341
40
0.87272727272727646
40
0.87575757575757951
40
0.87878787878788256
40
0.88181818181818561
40
0.88484848484848866
40
0.88787878787879171
40
0.89090909090909476
40
0.89393939393939781
40
0.89696969696970086
40
0.90000000000000391
40
0.90303030303030696
40
0.90606060606061001
40
0.90909090909091306
40
0.91212121212121611
40
0.91515151515151916
40
0.91818181818182221
40
0.92121212121212526
40
0.92424242424242831
40
0.92727272727273136
40
0.93030303030303441
40
0.93333333333333746
40
0.93636363636364051
40
0.93939393939394356
40
0.94242424242424661
40
0.94545454545454966
40
0.94848484848485271
40
0.95151515151515575
40
0.9545454545454588
40
0.95757575757576185
40
0.9606060606060649
40
0.96363636363636795
40
0.966666666666671
40
0.96969696969697405
40
0.9727272727272771
40
0.97575757575758015
40
0.9787878787878832
40
0.98181818181818625
40
0.9848484848484893
40
0.98787878787879235
40
0.9909090909090954
40
0.99393939393939845
40
0.9969696969697015
40
1
40
1
40
1
40
1
40
1
40
1
41
1
41
1
41
1
41
1
41
1
41
1
41
1
41
1
41
1
41
1
41
1
41
1
41
1
41
1
41
1
41
1
41
1
41
1
41
1
41
1
41
1
41
1
41
1
41
1
41
1
41
1
41
1
41
1
41
1
41
1
41
1
41
1
41
1
41
1
41
1
41
1
41
1
41
1
41
1
41
1
41
1
41
1
41
1
41
1
41
1
41
1
41
1
41
1
41
1
41
1
41
1
41
1
41
1
41
1
41
1
41
1
41
1
41
1
41
1
41
1
41
1
41
1
41
1
41
1
41
1
41
1
41
1
41
1
41
1
41
1
41
1
41
1
41
1
41
1
41
1
41
1
41
1
41
1
41
1
41
1
41
1
41
1
41
1
41
1
41
1
41
1
41
1
41
1
41
1
41
1
41
1
41
1
41
1
41
1
41
1
41
1
41
1
41
1
41
1
41
1
41
1
41
1
41
1
41
1
41
1
41
1
41
1
41
1
41
1
41
1
41
1
41
1
41
1
41
1
41
1
41
1
41
1
41
1
41
1
41
1
41
1
41
1
41
1
41
1
41
1
41
1
41
1
41
1
41
1
41
1
41
1
41
1
41
1
41
1
41
1
41
1
41
1
41
1
41
1
41
1
41
1
41
1
41
1
41
1
41
1
41
1
41
1
41
1
41
1
41
1
41
1
41
1
41
1
41
1
41
1
41
1
41
1
41
1
41
1
41
1
41
1
41
1
41
1
41
1
41
1
41
1
41
1
41
1
41
1
41
1
41
1
41
1
41
1
41
1
41
1
41
1
41
1
41
1
41
1
41
1
41
1
41
1
41
1
41
1
41
1
41
1
41
1
41
1
41
1
41
1
41
1
41
1
41
1
41
1
41
1
41
1
41
1
41
1
41
1
41
1
41
1
41
1
41
1
41
1
41
1
41
1
41
1
41
1
41
1
41
1
41
1
41
1
41
1
41
1
41
1
41
1
41
1
41
1
41
1
41
1
41
1
41
1
41
1
41
1
41
1
41
1
41
1
41
1
41
1
41
1
41
1
41
1
41
1
41
1
41
1
41
1
41
1
41
1
41
1
41
1
41
1
41
1
41
1
41
1
41
1
41
1
41
1
41
1
41
1
41
1
41
1
41
1
41
1
41
1
41
1
41
1
41
1
41
1
41
1
41
1
41
1
41
1
41
1
41
1
41
1
41
1
41
1
41
1
41
1
41
1
41
1
41
1
41
1
41
1
41
1
41
1
41
1
41
1
41
1
41
1
41
1
41
1
41
1
41
1
41
1
41
1
41
1
41
1
41
1
41
1
41
1
41
1
41
1
41
1
41
1
41
1
41
1
41
1
41
1
41
1
41
1
41
1
41
1
41
1
41
1
41
1
41
1
41
1
41
1
41
1
41
1
41
1
41
1
41
1
41
1
41
1
41
1
41
1
41
1
41
1
41
1
41
1
41
1
41
1
41
1
41
1
41
1
41
1
41
1
41
1
41
1
41
1
41
1
41
1
41
1
10
29.5
20
0
30
0
10
29.499999979420572
20
0.13084039668988171
30
0
10
29.50624866756624
20
0.39252118090770177
30
0
10
29.534367887966585
20
0.78387485785073596
30
0
10
29.610501130349892
20
1.2986748787794278
30
0
10
29.77491867846847
20
1.9203076260487217
30
0
10
30.011649243141214
20
2.5128453398051303
30
0
10
30.318203238866971
20
3.0735070145638135
30
0
10
30.682772127943288
20
3.6054420750929683
30
0
10
31.080468693118483
20
4.1192102353372544
30
0
10
31.47873907344372
20
4.6296190722989081
30
0
10
31.842754864136495
20
5.1525715581442793
30
0
10
32.14083148168838
20
5.7019006446998555
30
0
10
32.3497915146623
20
6.2862308472257142
30
0
10
32.460472984363896
20
6.9057686608399038
30
0
10
32.473978366596342
20
7.5536345191344925
30
0
10
32.397773915197867
20
8.217267899411647
30
0
10
32.241844774977466
20
8.8798053787151723
30
0
10
32.014826332296273
20
9.5214692123043037
30
0
10
31.720146651457561
20
10.120952626785185
30
0
10
31.358522730988589
20
10.658670780849086
30
0
10
30.930464286539269
20
11.120020478412451
30
0
10
30.438763238787434
20
11.498618180692102
30
0
10
29.891015513106041
20
11.79959094546453
30
0
10
29.302056435139146
20
12.042724869030167
30
0
10
28.691062112864074
20
12.256786989789966
30
0
10
28.07873426417736
20
12.473985431819834
30
0
10
27.48445335609949
20
12.724377085057084
30
0
10
26.923446837986017
20
13.03030037484594
30
0
10
26.403945997848879
20
13.40078889360713
30
0
10
25.929548772412723
20
13.834849026320832
30
0
10
25.501586888315334
20
14.324744890489677
30
0
10
25.12149126575817
20
14.859280198597528
30
0
10
24.793158152431097
20
15.427081137913987
30
0
10
24.525314971038718
20
16.019878731219414
30
0
10
24.327551777662229
20
16.631720313634823
30
0
10
24.206352127561999
20
17.258180964655921
30
0
10
24.161125173321704
20
17.895575182119913
30
0
10
24.180234233256034
20
18.540168253233769
30
0
10
24.237033835569349
20
19.187388529192269
30
0
10
24.296132349187722
20
19.832092990461348
30
0
10
24.319632459676566
20
20.468830411328483
30
0
10
24.273400740838444
20
21.092107832257526
30
0
10
24.133276348440468
20
21.696650002514733
30
0
10
23.891440095848662
20
22.277677297196842
30
0
10
23.552538819133883
20
22.829998300178033
30
0
10
23.129644261973748
20
23.347082988943111
30
0
10
22.640273517486804
20
23.820143326206534
30
0
10
22.102383791040499
20
24.237209856675133
30
0
10
21.530378265225472
20
24.582211533444926
30
0
10
20.935448482200773
20
24.839060178244875
30
0
10
20.325918325925887
20
24.995746373864598
30
0
10
19.707587711160333
20
25.048409372028374
30
0
10
19.08407484025162
20
25.005468995506611
30
0
10
18.45716281203098
20
24.891590950297076
30
0
10
17.82743095992344
20
24.74134299577614
30
0
10
17.194881650716166
20
24.593012523794918
30
0
10
16.559568789211671
20
24.482362870731155
30
0
10
15.922225456437388
20
24.436418896490654
30
0
10
15.284892323722353
20
24.467230312890965
30
0
10
14.651133356883758
20
24.57590642923893
30
0
10
14.026251209497453
20
24.756659392832198
30
0
10
13.417502818272919
20
25.000843901110535
30
0
10
12.834315062756241
20
25.300998164468659
30
0
10
12.288500464734177
20
25.654884277552888
30
0
10
11.79134494637176
20
26.062679315763219
30
0
10
11.350695114075791
20
26.524166073708912
30
0
10
10.96804644827156
20
27.035924673444839
30
0
10
10.635628687557798
20
27.588522009541151
30
0
10
10.333497854599635
20
28.163706536637079
30
0
10
10.034661141008351
20
28.738017511024829
30
0
10
9.7101844522564491
20
29.286380234760205
30
0
10
9.3343226411016786
20
29.785719812785789
30
0
10
8.8896023278462941
20
30.218536083208921
30
0
10
8.3720296544256954
20
30.576580798240244
30
0
10
7.7883204795589176
20
30.857998929975277
30
0
10
7.1530018505054462
20
31.064364192090995
30
0
10
6.4855612553979327
20
31.197754072717551
30
0
10
5.8075764327856003
20
31.257807623492454
30
0
10
5.1398527748423959
20
31.238791967841841
30
0
10
4.5005031317993902
20
31.133223473459758
30
0
10
3.9030227815820959
20
30.935499407118744
30
0
10
3.354378201075833
20
30.645507571349057
30
0
10
2.8530611159225123
20
30.272287319676749
30
0
10
2.3872362768596256
20
29.837552780421973
30
0
10
1.9387023084910335
20
29.370697414579002
30
0
10
1.4867614750561911
20
28.90393190538747
30
0
10
1.0121240047463169
20
28.467371429057916
30
0
10
0.50079586221428596
20
28.08414707798573
30
0
10
-0.052020796622219777
20
27.765498985022077
30
0
10
-0.64392751081907207
20
27.514287185932574
30
0
10
-1.2673342549057212
20
27.328509460148073
30
0
10
-1.9114621017941869
20
27.204816312542704
30
0
10
-2.5643465077308321
20
27.142027042114023
30
0
10
-3.2148402440513562
20
27.144645334512202
30
0
10
-3.8535447230524826
20
27.218921785227902
30
0
10
-4.473741529273914
20
27.368915865160591
30
0
10
-5.0723236589166101
20
27.592559107666546
30
0
10
-5.6507279500043932
20
27.877714959001413
30
0
10
-6.2158648135250028
20
28.198246713941217
30
0
10
-6.7777582092400444
20
28.519824524966822
30
0
10
-7.3471926411960844
20
28.805711261330273
30
0
10
-7.9333510753374616
20
29.022576208594106
30
0
10
-8.5414717522343508
20
29.14625047145719
30
0
10
-9.1704551796661544
20
29.167635939638146
30
0
10
-9.8136487139569244
20
29.088802931706677
30
0
10
-10.459682239126714
20
28.918929254558744
30
0
10
-11.093285011818617
20
28.670298333937467
30
0
10
-11.696109539829722
20
28.354272326965972
30
0
10
-12.247553786414166
20
27.977276675205722
30
0
10
-12.728334295238019
20
27.542808292696431
30
0
10
-13.12406904979791
20
27.053449958406354
30
0
10
-13.428836818271229
20
26.51287364757566
30
0
10
-13.64879348527008
20
25.927868313610784
30
0
10
-13.805635040133538
20
25.310302424837232
30
0
10
-13.930564758995621
20
24.675062927685527
30
0
10
-14.058409095303917
20
24.038057132444443
30
0
10
-14.221677131224276
20
23.414190699493581
30
0
10
-14.444647011132671
20
22.81535699531975
30
0
10
-14.73743181292628
20
22.248417911047206
30
0
10
-15.099560074936736
20
21.717076167753447
30
0
10
-15.523564179257283
20
21.223750867886181
30
0
10
-15.998565441612167
20
20.771451764789255
30
0
10
-16.513860312144885
20
20.365654110288283
30
0
10
-17.062506021651778
20
20.016173292664465
30
0
10
-17.639975302079289
20
19.733348907595328
30
0
10
-18.242810978351876
20
19.524228248943135
30
0
10
-18.867280975049987
20
19.388750984910359
30
0
10
-19.508032520900073
20
19.315930383499584
30
0
10
-20.156748453880965
20
19.280042798859117
30
0
10
-20.803301348729214
20
19.246788763682218
30
0
10
-21.436902115175233
20
19.179432493857597
30
0
10
-22.047256011061837
20
19.04496972189806
30
0
10
-22.625703033461789
20
18.820236272582932
30
0
10
-23.166399420880147
20
18.498172758868662
30
0
10
-23.664867912045718
20
18.084117534281308
30
0
10
-24.116505253744521
20
17.591938610093887
30
0
10
-24.515105800513773
20
17.040225448779893
30
0
10
-24.8513775056343
20
16.448455908342755
30
0
10
-25.111462688888242
20
15.833173716183246
30
0
10
-25.281029648974283
20
15.207746087186692
30
0
10
-25.34937581943246
20
14.582121298443552
30
0
10
-25.313505162768763
20
13.962589671710376
30
0
10
-25.182266723980185
20
13.351534315536158
30
0
10
-24.980328909164236
20
12.747209883417135
30
0
10
-24.741990075492399
20
12.145270306914353
30
0
10
-24.505148241201503
20
11.540269064745104
30
0
10
-24.305210394924753
20
10.927169859605995
30
0
10
-24.169030650768146
20
10.30285227224965
30
0
10
-24.108826489667393
20
9.6676213501249908
30
0
10
-24.12620313497883
20
9.024846911841486
30
0
10
-24.216186292281648
20
8.3806013349287376
30
0
10
-24.371251425504635
20
7.7432980457800351
30
0
10
-24.585354280139633
20
7.123329895280893
30
0
10
-24.85796082661011
20
6.5327076579167773
30
0
10
-25.190852492131125
20
5.9825771809807957
30
0
10
-25.584930970671174
20
5.4807361152903251
30
0
10
-26.037024022766726
20
5.0291514188131199
30
0
10
-26.536688734905425
20
4.6214743910791594
30
0
10
-27.063021012232802
20
4.2405615214124586
30
0
10
-27.588957430424482
20
3.8630335612400231
30
0
10
-28.085560764823228
20
3.463819424979762
30
0
10
-28.526327073065826
20
3.0207199138250345
30
0
10
-28.891447598468201
20
2.5189300345980454
30
0
10
-29.172189663245813
20
1.9556704290005404
30
0
10
-29.367672887351365
20
1.3378525959894869
30
0
10
-29.481522380706853
20
0.67963175562236733
30
0
10
-29.518567844330875
20
1.3841142820075758e-06
30
0
10
-29.481522836166892
20
-0.67962904194341234
30
0
10
-29.367673748080911
20
-1.3378500258678909
30
0
10
-29.172190847704663
20
-1.9556680482058961
30
0
10
-28.891449007851868
20
-2.5189278414295755
30
0
10
-28.526328606092463
20
-3.0207178699785726
30
0
10
-28.085562338546126
20
-3.4638174902877084
30
0
10
-27.588958983430881
20
-3.8630317285070164
30
0
10
-27.063022492894071
20
-4.2405598219231635
30
0
10
-26.536690096946241
20
-4.6214728913663476
30
0
10
-26.037025221971323
20
-5.0291502030137591
30
0
10
-25.584931960319473
20
-5.480735250783705
30
0
10
-25.190853232092024
20
-5.9825766813126364
30
0
10
-24.857961298596003
20
-6.5327074720581635
30
0
10
-24.585354492227964
20
-7.1233299073686505
30
0
10
-24.371251412157942
20
-7.7432980912348519
30
0
10
-24.216186107326209
20
-8.380601230434646
30
0
10
-24.126202838401234
20
-9.0248465003134228
30
0
10
-24.108826137312956
20
-9.667620529725264
30
0
10
-24.169030285610084
20
-10.302851009936624
30
0
10
-24.305210043400368
20
-10.927168188471468
30
0
10
-24.505147906186409
20
-11.540267066731118
30
0
10
-24.741989748695168
20
-12.145268076706557
30
0
10
-24.980328593543391
20
-12.747207502004933
30
0
10
-25.182266446054385
20
-13.351531837150588
30
0
10
-25.313504978091522
20
-13.962587123500549
30
0
10
-25.349375819499276
20
-14.582118691462707
30
0
10
-25.281029939697905
20
-15.207743443968356
30
0
10
-25.111463354308057
20
-15.833171088714213
30
0
10
-24.851378589601971
20
-16.44845337921064
30
0
10
-24.515107297131191
20
-17.040223119997826
30
0
10
-24.116507104027963
20
-17.591936573442027
30
0
10
-23.664870025650675
20
-18.084115837502811
30
0
10
-23.166401704465493
20
-18.498171396383434
30
0
10
-22.625705404827436
20
-18.820235189542544
30
0
10
-22.047258405712761
20
-19.04496883132181
30
0
10
-21.436904485048316
20
-19.179431717109839
30
0
10
-20.803303646050885
20
-19.246788061507644
30
0
10
-20.15675061830494
20
-19.280042169663435
30
0
10
-19.50803447752709
20
-19.315929858235478
30
0
10
-18.867282641195835
20
-19.388750610453741
30
0
10
-18.242812278285236
20
-19.524228056718528
30
0
10
-17.639976194716272
20
-19.733348887301634
30
0
10
-17.062506519195722
20
-20.016173391485992
30
0
10
-16.513860484030776
20
-20.365654235121404
30
0
10
-15.998565405809471
20
-20.771451795812489
30
0
10
-15.523564080155655
20
-21.223750679985088
30
0
10
-15.09956004792723
20
-21.717075661211251
30
0
10
-14.737431960047294
20
-22.248417030385138
30
0
10
-14.444647386399547
20
-22.815355735974823
30
0
10
-14.221677738986759
20
-23.414189103597415
30
0
10
-14.058409893679542
20
-24.038055270485536
30
0
10
-13.930565689818229
20
-24.675060874835786
30
0
10
-13.805636062105709
20
-25.310300250828689
30
0
10
-13.648794591381044
20
-25.927866078402356
30
0
10
-13.428838040577185
20
-26.512871404041064
30
0
10
-13.124070459293542
20
-27.053447765310509
30
0
10
-12.72833596884049
20
-27.54280622625657
30
0
10
-12.24755576671647
20
-27.977274824591014
30
0
10
-11.69611181907251
20
-28.354270785361582
30
0
10
-11.093287529887952
20
-28.670297183973659
30
0
10
-10.459684896782138
20
-28.918928541557388
30
0
10
-9.8136514093836507
20
-29.088802646987908
30
0
10
-9.1704578373568371
20
-29.167636028043265
30
0
10
-8.5414743326906724
20
-29.146250842403511
30
0
10
-7.9333535713278014
20
-29.02257675403969
30
0
10
-7.3471950548010501
20
-28.80571188913774
30
0
10
-6.7777605214934606
20
-28.519825176284613
30
0
10
-6.2158669745225215
20
-28.198247354802962
30
0
10
-5.6507298800026975
20
-27.877715574952916
30
0
10
-5.0723252630142497
20
-27.592559693440009
30
0
10
-4.4737427267721568
20
-27.368916406248701
30
0
10
-3.8535454849582744
20
-27.218922250752922
30
0
10
-3.2148406091849391
20
-27.144645686639922
30
0
10
-2.564346584840326
20
-27.142027240059548
30
0
10
-1.9114620549025421
20
-27.204816319284749
30
0
10
-1.2673342731234793
20
-27.328509248496484
30
0
10
-0.64392776195536183
20
-27.514286745198323
30
0
10
-0.052021396510893644
20
-27.765498323700072
30
0
10
0.50079486566598808
20
-28.084146221440975
30
0
10
1.0121226306574191
20
-28.46737041508586
30
0
10
1.486759796769265
20
-28.903930770643331
30
0
10
1.9387004155794241
20
-29.370696190853639
30
0
10
2.3872342417646562
20
-29.83755150405004
30
0
10
2.8530589769582129
20
-30.272286037308618
30
0
10
3.3543759598603602
20
-30.645506344796075
30
0
10
3.9030204101613499
20
-30.935498324200104
30
0
10
4.5005006066726656
20
-31.133222639878134
30
0
10
5.1398501083870451
20
-31.238791481638412
30
0
10
5.8075736819094264
20
-31.257807558864336
30
0
10
6.4855585153458932
20
-31.197754466677502
30
0
10
7.1529992292668823
20
-31.064365029112693
30
0
10
7.7883180580930045
20
-30.858000147711664
30
0
10
8.3720274664314989
20
-30.576582309466765
30
0
10
8.8896003575783684
20
-30.218537790368408
30
0
10
9.3343208362311856
20
-29.785721621078039
30
0
10
9.7101827612198495
20
-29.286382067799074
30
0
10
10.034659547944031
20
-28.738019309047207
30
0
10
10.333496383127006
20
-28.163708244088177
30
0
10
10.635627396947493
20
-27.58852357114877
30
0
10
10.968045415511956
20
-27.035926033469416
30
0
10
11.350694399211466
20
-26.524167176316865
30
0
10
11.7913445570988
20
-26.062680119303877
30
0
10
12.28850034793969
20
-25.654884771186293
30
0
10
12.834315104905311
20
-25.300998372678563
30
0
10
13.417502861365708
20
-25.00084388143064
30
0
10
14.02625107974443
20
-24.756659224629836
30
0
10
14.651132907336182
20
-24.575906194246055
30
0
10
15.284891461527053
20
-24.467230080877744
30
0
10
15.9222241550051
20
-24.436418714695169
30
0
10
16.559567085059982
20
-24.482362760612084
30
0
10
17.194879625362177
20
-24.593012476536877
30
0
10
17.827428705908911
20
-24.741342989697081
30
0
10
18.457160409941576
20
-24.891590976799382
30
0
10
19.084072347540214
20
-25.005469073121063
30
0
10
19.707585162605518
20
-25.048409551878986
30
0
10
20.325915745489574
20
-24.995746744942359
30
0
10
20.935445907260217
20
-24.839060842177663
30
0
10
21.530375759198495
20
-24.582212566018594
30
0
10
22.102381441915398
20
-24.237211289541818
30
0
10
22.640271425399408
20
-23.820145139010585
30
0
10
23.129642509375934
20
-23.347085110239473
30
0
10
23.552537440425148
20
-22.830000633747005
30
0
10
23.891439072221235
20
-22.277679751441152
30
0
10
24.133275613905319
20
-21.696652503876305
30
0
10
24.273400200121333
20
-21.092110329276249
30
0
10
24.319632028102287
20
-20.468832867621675
30
0
10
24.296131981102015
20
-19.832095364328705
30
0
10
24.237033520806524
20
-19.187390761128711
30
0
10
24.180233991794854
20
-18.540170264697487
30
0
10
24.161125039793877
20
-17.895576884597244
30
0
10
24.206352122294163
20
-17.258182278714187
30
0
10
24.32755188461099
20
-16.631721200074089
30
0
10
24.525315139662645
20
-16.019879209635111
30
0
10
24.793158300455815
20
-15.42708129028437
30
0
10
25.12149129137056
20
-14.859280158743836
30
0
10
25.501586688223178
20
-14.324744819137834
30
0
10
25.92954826718227
20
-13.834849071674979
30
0
10
26.403945147087956
20
-13.400789164562264
30
0
10
26.923445644865481
20
-13.030300925516801
30
0
10
27.484451862941214
20
-12.724377913752967
30
0
10
28.078732534791513
20
-12.473986487053118
30
0
10
28.691060213379323
20
-12.256788203288437
30
0
10
29.3020544287007
20
-12.042726189993036
30
0
10
29.891013458065032
20
-11.799592358419504
30
0
10
30.438761192041465
20
-11.49861970984476
30
0
10
30.930462316358089
20
-11.120022185672028
30
0
10
31.358520923760089
20
-10.658672731502888
30
0
10
31.720145101505146
20
-10.120954850301921
30
0
10
32.01482513075279
20
-9.5214716877413856
30
0
10
32.241843995077438
20
-8.8798080348106936
30
0
10
32.397773587678138
20
-8.2172706314855102
30
0
10
32.473978468375471
20
-7.5536372276438168
30
0
10
32.460473450098448
20
-6.9057712788963146
30
0
10
32.349792249070049
20
-6.2862333486245312
30
0
10
32.140832376798315
20
-5.7019030376593269
30
0
10
31.842755829045611
20
-5.1525738578362148
30
0
10
31.478740047200439
20
-4.6296212683252778
30
0
10
31.08046963499983
20
-4.1192122831352238
30
0
10
30.682773012293207
20
-3.6054438977876782
30
0
10
30.318204046964944
20
-3.0735085189694704
30
0
10
30.011649949142249
20
-2.5128464481088191
30
0
10
29.774919247682949
20
-1.9203083139474564
30
0
10
29.610501530854393
20
-1.2986751900823497
30
0
10
29.534368133589581
20
-0.78387495863505086
30
0
10
29.506248791042815
20
-0.39252119923119788
30
0
10
29.500000020579439
20
-0.13084039668968606
30
0
10
29.5
20
0
30
0
0
CIRCLE
5
103
100
AcDbEntity
8
0
100
AcDbCircle
10
2
20
0
30
0
40
9.0000000000000018
210
0
220
0
230
1
0
CIRCLE
5
104
100
AcDbEntity
8
0
100
AcDbCircle
10
19.5
20
0
30
0
40
5.9999999999999982
210
0
220
0
230
1
0
LINE
5
105
100
AcDbEntity
8
1
100
AcDbLine
10
2
20
0
30
0
11
19.5
21
0
31
0
0
CIRCLE
5
106
100
AcDbEntity
8
0
100
AcDbCircle
10
2.0000000000000013
20
17.5
30
0
40
6.0000000000000009
210
0
220
0
230
1
0
LINE
5
107
100
AcDbEntity
8
1
100
AcDbLine
10
2
20
0
30
0
11
2.0000000000000013
21
17.5
31
0
0
CIRCLE
5
108
100
AcDbEntity
8
0
100
AcDbCircle
10
-15.5
20
2.1431318985078682e-15
30
0
40
6.0000000000000009
210
0
220
0
230
1
0
LINE
5
109
100
AcDbEntity
8
1
100
AcDbLine
10
2
20
0
30
0
11
-15.5
21
2.1431318985078682e-15
31
0
0
CIRCLE
5
110
100
AcDbEntity
8
0
100
AcDbCircle
10
1.9999999999999969
20
-17.5
30
0
40
6.0000000000000009
210
0
220
0
230
1
0
LINE
5
111
100
AcDbEntity
8
1
100
AcDbLine
10
2
20
0
30
0
11
1.9999999999999969
21
-17.5
31
0
0
ENDSEC
0
SECTION
2
OBJECTS
0
DICTIONARY
5
C
100
AcDbDictionary
3
ACAD_GROUP
350
D
3
ACAD_MLINESTYLE
350
17
0
DICTIONARY
5
D
100
AcDbDictionary
0
DICTIONARY
5
1A
330
C
100
AcDbDictionary
0
DICTIONARY
5
17
100
AcDbDictionary
0
ENDSEC
0
EOF
