0
SECTION
2
HEADER
9
$INSUNITS
70
4
9
$ACADVER
1
AC1014
9
$HANDSEED
5
FFFF
0
ENDSEC
0
SECTION
2
TABLES
0
TABLE
2
VPORT
5
8
100
AcDbSymbolTable
0
ENDTAB
0
TABLE
2
LTYPE
5
5
100
AcDbSymbolTable
0
LTYPE
5
14
100
AcDbSymbolTableRecord
100
AcDbLinetypeTableRecord
2
BYBLOCK
70
0
0
LTYPE
5
15
100
AcDbSymbolTableRecord
100
AcDbLinetypeTableRecord
2
BYLAYER
70
0
0
LTYPE
5
16
100
AcDbSymbolTableRecord
100
AcDbLinetypeTableRecord
2
DASHED
70
0
3
Dashed __ __ __ __ __ __ __ __ __ __ __ __ __ _
72
65
73
2
40
0.75
49
0.5
74
0
49
-0.25
74
0
0
ENDTAB
0
TABLE
2
LAYER
5
2
100
AcDbSymbolTable
70
3
0
LAYER
5
50
100
AcDbSymbolTableRecord
100
AcDbLayerTableRecord
2
1
70
0
62
7
6
DASHED
0
LAYER
5
51
100
AcDbSymbolTableRecord
100
AcDbLayerTableRecord
2
0
70
0
62
7
6
CONTINUOUS
0
ENDTAB
0
TABLE
2
STYLE
5
3
100
AcDbSymbolTable
70
1
0
STYLE
5
11
100
AcDbSymbolTableRecord
100
AcDbTextStyleTableRecord
2
STANDARD
70
0
0
ENDTAB
0
TABLE
2
VIEW
5
6
100
AcDbSymbolTable
70
0
0
ENDTAB
0
TABLE
2
UCS
5
7
100
AcDbSymbolTable
70
0
0
ENDTAB
0
TABLE
2
APPID
5
9
100
AcDbSymbolTable
70
2
0
APPID
5
12
100
AcDbSymbolTableRecord
100
AcDbRegAppTableRecord
2
ACAD
70
0
0
ENDTAB
0
TABLE
2
DIMSTYLE
5
A
100
AcDbSymbolTable
70
1
0
ENDTAB
0
TABLE
2
BLOCK_RECORD
5
1
100
AcDbSymbolTable
70
1
0
BLOCK_RECORD
5
1F
100
AcDbSymbolTableRecord
100
AcDbBlockTableRecord
2
*MODEL_SPACE
0
BLOCK_RECORD
5
1B
100
AcDbSymbolTableRecord
100
AcDbBlockTableRecord
2
*PAPER_SPACE
0
ENDTAB
0
ENDSEC
0
SECTION
2
BLOCKS
0
BLOCK
5
20
100
AcDbEntity
100
AcDbBlockBegin
2
*MODEL_SPACE
0
ENDBLK
5
21
100
AcDbEntity
100
AcDbBlockEnd
0
BLOCK
5
1C
100
AcDbEntity
100
AcDbBlockBegin
2
*PAPER_SPACE
0
ENDBLK
5
1D
100
AcDbEntity
100
AcDbBlockEnd
0
ENDSEC
0
SECTION
2
ENTITIES
0
POINT
5
100
100
AcDbEntity
8
0
100
AcDbPoint
10
0
20
0
30
0
0
POINT
5
101
100
AcDbEntity
8
0
100
AcDbPoint
10
2
20
0
30
0
0
SPLINE
5
102
100
AcDbEntity
8
0
100
AcDbSpline
70
6
71
5
72
341
73
335
74
0
42
0.000000001
43
0.0000000001
44
0.0000000001
40
0
40
0
40
0
40
0
40
0
40
0
40
0.0030303030303030303
40
0.0060606060606060606
40
0.0090909090909090905
40
0.012121212121212121
40
0.015151515151515152
40
0.018181818181818181
40
0.02121212121212121
40
0.024242424242424239
40
0.027272727272727268
40
0.030303030303030297
40
0.033333333333333326
40
0.036363636363636355
40
0.039393939393939384
40
0.042424242424242413
40
0.045454545454545442
40
0.048484848484848471
40
0.0515151515151515
40
0.054545454545454529
40
0.057575757575757558
40
0.060606060606060587
40
0.063636363636363616
40
0.066666666666666652
40
0.069696969696969688
40
0.072727272727272724
40
0.07575757575757576
40
0.078787878787878796
40
0.081818181818181832
40
0.084848484848484867
40
0.087878787878787903
40
0.090909090909090939
40
0.093939393939393975
40
0.096969696969697011
40
0.10000000000000005
40
0.10303030303030308
40
0.10606060606060612
40
0.10909090909090915
40
0.11212121212121219
40
0.11515151515151523
40
0.11818181818181826
40
0.1212121212121213
40
0.12424242424242433
40
0.12727272727272737
40
0.13030303030303039
40
0.13333333333333341
40
0.13636363636363644
40
0.13939393939393946
40
0.14242424242424248
40
0.1454545454545455
40
0.14848484848484853
40
0.15151515151515155
40
0.15454545454545457
40
0.15757575757575759
40
0.16060606060606061
40
0.16363636363636364
40
0.16666666666666666
40
0.16969696969696968
40
0.1727272727272727
40
0.17575757575757572
40
0.17878787878787875
40
0.18181818181818177
40
0.18484848484848479
40
0.18787878787878781
40
0.19090909090909083
40
0.19393939393939386
40
0.19696969696969688
40
0.1999999999999999
40
0.20303030303030292
40
0.20606060606060594
40
0.20909090909090897
40
0.21212121212121199
40
0.21515151515151501
40
0.21818181818181803
40
0.22121212121212105
40
0.22424242424242408
40
0.2272727272727271
40
0.23030303030303012
40
0.23333333333333314
40
0.23636363636363616
40
0.23939393939393919
40
0.24242424242424221
40
0.24545454545454523
40
0.24848484848484825
40
0.2515151515151513
40
0.25454545454545435
40
0.2575757575757574
40
0.26060606060606045
40
0.2636363636363635
40
0.26666666666666655
40
0.2696969696969696
40
0.27272727272727265
40
0.2757575757575757
40
0.27878787878787875
40
0.2818181818181818
40
0.28484848484848485
40
0.2878787878787879
40
0.29090909090909095
40
0.293939393939394
40
0.29696969696969705
40
0.3000000000000001
40
0.30303030303030315
40
0.3060606060606062
40
0.30909090909090925
40
0.3121212121212123
40
0.31515151515151535
40
0.3181818181818184
40
0.32121212121212145
40
0.3242424242424245
40
0.32727272727272755
40
0.3303030303030306
40
0.33333333333333365
40
0.3363636363636367
40
0.33939393939393975
40
0.3424242424242428
40
0.34545454545454585
40
0.3484848484848489
40
0.35151515151515195
40
0.354545454545455
40
0.35757575757575805
40
0.3606060606060611
40
0.36363636363636415
40
0.3666666666666672
40
0.36969696969697025
40
0.3727272727272733
40
0.37575757575757635
40
0.3787878787878794
40
0.38181818181818244
40
0.38484848484848549
40
0.38787878787878854
40
0.39090909090909159
40
0.39393939393939464
40
0.39696969696969769
40
0.40000000000000074
40
0.40303030303030379
40
0.40606060606060684
40
0.40909090909090989
40
0.41212121212121294
40
0.41515151515151599
40
0.41818181818181904
40
0.42121212121212209
40
0.42424242424242514
40
0.42727272727272819
40
0.43030303030303124
40
0.43333333333333429
40
0.43636363636363734
40
0.43939393939394039
40
0.44242424242424344
40
0.44545454545454649
40
0.44848484848484954
40
0.45151515151515259
40
0.45454545454545564
40
0.45757575757575869
40
0.46060606060606174
40
0.46363636363636479
40
0.46666666666666784
40
0.46969696969697089
40
0.47272727272727394
40
0.47575757575757699
40
0.47878787878788004
40
0.48181818181818309
40
0.48484848484848614
40
0.48787878787878919
40
0.49090909090909224
40
0.49393939393939529
40
0.49696969696969834
40
0.50000000000000133
40
0.50303030303030438
40
0.50606060606060743
40
0.50909090909091048
40
0.51212121212121353
40
0.51515151515151658
40
0.51818181818181963
40
0.52121212121212268
40
0.52424242424242573
40
0.52727272727272878
40
0.53030303030303183
40
0.53333333333333488
40
0.53636363636363793
40
0.53939393939394098
40
0.54242424242424403
40
0.54545454545454708
40
0.54848484848485013
40
0.55151515151515318
40
0.55454545454545623
40
0.55757575757575928
40
0.56060606060606233
40
0.56363636363636538
40
0.56666666666666843
40
0.56969696969697148
40
0.57272727272727453
40
0.57575757575757758
40
0.57878787878788063
40
0.58181818181818368
40
0.58484848484848673
40
0.58787878787878978
40
0.59090909090909283
40
0.59393939393939588
40
0.59696969696969893
40
0.60000000000000198
40
0.60303030303030503
40
0.60606060606060808
40
0.60909090909091113
40
0.61212121212121418
40
0.61515151515151723
40
0.61818181818182028
40
0.62121212121212332
40
0.62424242424242637
40
0.62727272727272942
40
0.63030303030303247
40
0.63333333333333552
40
0.63636363636363857
40
0.63939393939394162
40
0.64242424242424467
40
0.64545454545454772
40
0.64848484848485077
40
0.65151515151515382
40
0.65454545454545687
40
0.65757575757575992
40
0.66060606060606297
40
0.66363636363636602
40
0.66666666666666907
40
0.66969696969697212
40
0.67272727272727517
40
0.67575757575757822
40
0.67878787878788127
40
0.68181818181818432
40
0.68484848484848737
40
0.68787878787879042
40
0.69090909090909347
40
0.69393939393939652
40
0.69696969696969957
40
0.70000000000000262
40
0.70303030303030567
40
0.70606060606060872
40
0.70909090909091177
40
0.71212121212121482
40
0.71515151515151787
40
0.71818181818182092
40
0.72121212121212397
40
0.72424242424242702
40
0.72727272727273007
40
0.73030303030303312
40
0.73333333333333617
40
0.73636363636363922
40
0.73939393939394227
40
0.74242424242424532
40
0.74545454545454837
40
0.74848484848485142
40
0.75151515151515447
40
0.75454545454545752
40
0.75757575757576057
40
0.76060606060606362
40
0.76363636363636667
40
0.76666666666666972
40
0.76969696969697277
40
0.77272727272727582
40
0.77575757575757887
40
0.77878787878788192
40
0.78181818181818497
40
0.78484848484848801
40
0.78787878787879106
40
0.79090909090909411
40
0.79393939393939716
40
0.79696969696970021
40
0.80000000000000326
40
0.80303030303030631
40
0.80606060606060936
40
0.80909090909091241
40
0.81212121212121546
40
0.81515151515151851
40
0.81818181818182156
40
0.82121212121212461
40
0.82424242424242766
40
0.82727272727273071
40
0.83030303030303376
40
0.83333333333333681
40
0.83636363636363986
40
0.83939393939394291
40
0.84242424242424596
40
0.84545454545454901
40
0.84848484848485206
40
0.85151515151515511
40
0.85454545454545816
40
0.85757575757576121
40
0.86060606060606426
40
0.86363636363636731
40
0.86666666666667036
40
0.86969696969697341
40
0.87272727272727646
40
0.87575757575757951
40
0.87878787878788256
40
0.88181818181818561
40
0.88484848484848866
40
0.88787878787879171
40
0.89090909090909476
40
0.89393939393939781
40
0.89696969696970086
40
0.90000000000000391
40
0.90303030303030696
40
0.90606060606061001
40
0.90909090909091306
40
0.91212121212121611
40
0.91515151515151916
40
0.91818181818182221
40
0.92121212121212526
40
0.92424242424242831
40
0.92727272727273136
40
0.93030303030303441
40
0.93333333333333746
40
0.93636363636364051
40
0.93939393939394356
40
0.94242424242424661
40
0.94545454545454966
40
0.94848484848485271
40
0.95151515151515575
40
0.9545454545454588
40
0.95757575757576185
40
0.9606060606060649
40
0.96363636363636795
40
0.966666666666671
40
0.96969696969697405
40
0.9727272727272771
40
0.97575757575758015
40
0.9787878787878832
40
0.98181818181818625
40
0.9848484848484893
40
0.98787878787879235
40
0.9909090909090954
40
0.99393939393939845
40
0.9969696969697015
40
1
40
1
40
1
40
1
40
1
40
1
41
1
41
1
41
1
41
1
41
1
41
1
41
1
41
1
41
1
41
1
41
1
41
1
41
1
41
1
41
1
41
1
41
1
41
1
41
1
41
1
41
1
41
1
41
1
41
1
41
1
41
1
41
1
41
1
41
1
41
1
41
1
41
1
41
1
41
1
41
1
41
1
41
1
41
1
41
1
41
1
41
1
41
1
41
1
41
1
41
1
41
1
41
1
41
1
41
1
41
1
41
1
41
1
41
1
41
1
41
1
41
1
41
1
41
1
41
1
41
1
41
1
41
1
41
1
41
1
41
1
41
1
41
1
41
1
41
1
41
1
41
1
41
1
41
1
41
1
41
1
41
1
41
1
41
1
41
1
41
1
41
1
41
1
41
1
41
1
41
1
41
1
41
1
41
1
41
1
41
1
41
1
41
1
41
1
41
1
41
1
41
1
41
1
41
1
41
1
41
1
41
1
41
1
41
1
41
1
41
1
41
1
41
1
41
1
41
1
41
1
41
1
41
1
41
1
41
1
41
1
41
1
41
1
41
1
41
1
41
1
41
1
41
1
41
1
41
1
41
1
41
1
41
1
41
1
41
1
41
1
41
1
41
1
41
1
41
1
41
1
41
1
41
1
41
1
41
1
41
1
41
1
41
1
41
1
41
1
41
1
41
1
41
1
41
1
41
1
41
1
41
1
41
1
41
1
41
1
41
1
41
1
41
1
41
1
41
1
41
1
41
1
41
1
41
1
41
1
41
1
41
1
41
1
41
1
41
1
41
1
41
1
41
1
41
1
41
1
41
1
41
1
41
1
41
1
41
1
41
1
41
1
41
1
41
1
41
1
41
1
41
1
41
1
41
1
41
1
41
1
41
1
41
1
41
1
41
1
41
1
41
1
41
1
41
1
41
1
41
1
41
1
41
1
41
1
41
1
41
1
41
1
41
1
41
1
41
1
41
1
41
1
41
1
41
1
41
1
41
1
41
1
41
1
41
1
41
1
41
1
41
1
41
1
41
1
41
1
41
1
41
1
41
1
41
1
41
1
41
1
41
1
41
1
41
1
41
1
41
1
41
1
41
1
41
1
41
1
41
1
41
1
41
1
41
1
41
1
41
1
41
1
41
1
41
1
41
1
41
1
41
1
41
1
41
1
41
1
41
1
41
1
41
1
41
1
41
1
41
1
41
1
41
1
41
1
41
1
41
1
41
1
41
1
41
1
41
1
41
1
41
1
41
1
41
1
41
1
41
1
41
1
41
1
41
1
41
1
41
1
41
1
41
1
41
1
41
1
41
1
41
1
41
1
41
1
41
1
41
1
41
1
41
1
41
1
41
1
41
1
41
1
41
1
41
1
41
1
41
1
41
1
41
1
41
1
41
1
41
1
41
1
41
1
41
1
41
1
41
1
41
1
41
1
41
1
41
1
41
1
41
1
41
1
41
1
41
1
41
1
41
1
41
1
41
1
41
1
41
1
41
1
41
1
41
1
41
1
41
1
41
1
41
1
41
1
41
1
41
1
10
27
20
0
30
0
10
27.000000013823925
20
0.12486197740213248
30
0
10
27.005203519695279
20
0.3745859386059156
30
0
10
27.02861921175186
20
0.74776832788489234
30
0
10
27.092865722220726
20
1.2369234491666095
30
0
10
27.236902465352074
20
1.8220556614179195
30
0
10
27.452682499922808
20
2.3721182974856827
30
0
10
27.742695976310365
20
2.8836340050248594
30
0
10
28.099072885399558
20
3.3601593744211451
30
0
10
28.498699502696198
20
3.814063366208619
30
0
10
28.908991247718273
20
4.2627987156867313
30
0
10
29.293694347113245
20
4.7251596709740706
30
0
10
29.618707334124061
20
5.2175266264226146
30
0
10
29.857823266932904
20
5.7501583454530572
30
0
10
29.998700440837744
20
6.3233481583630091
30
0
10
30.039517719149501
20
6.9291112718186918
30
0
10
29.98538179310421
20
7.5530189036504822
30
0
10
29.844826309697279
20
8.1759785552004569
30
0
10
29.6262718480004
20
8.7760356177936316
30
0
10
29.334504088948389
20
9.3301681981203259
30
0
10
28.972666221157432
20
9.8177010539431162
30
0
10
28.544262983337781
20
10.223735070072149
30
0
10
28.055143305005306
20
10.542537619615731
30
0
10
27.515531111890024
20
10.781027906285214
30
0
10
26.941926817489573
20
10.96200466756817
30
0
10
26.354162542412606
20
11.117684565812807
30
0
10
25.772576017602631
20
11.283478548716984
30
0
10
25.215143518795227
20
11.491685309224977
30
0
10
24.694622406121773
20
11.76520649870881
30
0
10
24.215710500119215
20
12.11128899863416
30
0
10
23.778192909770858
20
12.525661253587309
30
0
10
23.380062070122818
20
12.996622653558363
30
0
10
23.020647757489549
20
13.509150008370863
30
0
10
22.703742658973624
20
14.04899645809283
30
0
10
22.440730632955447
20
14.606793657797638
30
0
10
22.245555694466997
20
15.176910341107583
30
0
10
22.129695097629458
20
15.756311971246024
30
0
10
22.097123688953332
20
16.343419490264377
30
0
10
22.139297957492445
20
16.936970044201892
30
0
10
22.230086235942316
20
17.534872841912197
30
0
10
22.332640969769869
20
18.134193504390545
30
0
10
22.406302606400793
20
18.731142489604441
30
0
10
22.413527256656902
20
19.321063217306538
30
0
10
22.326721931908182
20
19.898417366019693
30
0
10
22.13534554314128
20
20.456779271574
30
0
10
21.842182957878361
20
20.988447117540122
30
0
10
21.459330986750192
20
21.484043525667929
30
0
10
21.004290774520456
20
21.93212050189824
30
0
10
20.496015720662474
20
22.318761162874306
30
0
10
19.950978371387414
20
22.627185593969617
30
0
10
19.383000825087471
20
22.841700010672881
30
0
10
18.803086525400051
20
22.951665284495874
30
0
10
18.219255197032915
20
22.955420992848168
30
0
10
17.636366949675299
20
22.864315411860453
30
0
10
17.055976886403151
20
22.70644885702982
30
0
10
16.477351206074434
20
22.51964576327029
30
0
10
15.898454492984698
20
22.344691122915528
30
0
10
15.316947360847553
20
22.218475033920143
30
0
10
14.731180416423948
20
22.167160741018463
30
0
10
14.141187757917603
20
22.199384542381267
30
0
10
13.549097984712278
20
22.311436798070883
30
0
10
12.959548053058894
20
22.492388957022335
30
0
10
12.380096284731952
20
22.72924035714372
30
0
10
11.821635725155415
20
23.012056258641071
30
0
10
11.298807995068083
20
23.33911008674875
30
0
10
10.82638803883504
20
23.713203222417995
30
0
10
10.415671731476198
20
24.137987922915116
30
0
10
10.070856629840993
20
24.614284764428888
30
0
10
9.7854382255612293
20
25.136412395861303
30
0
10
9.5385635282332064
20
25.688484085800994
30
0
10
9.300820847493954
20
26.248109985539703
30
0
10
9.0400539721990611
20
26.790119915714115
30
0
10
8.7271965102923659
20
27.29029875280462
30
0
10
8.3420300052579215
20
27.729069468373698
30
0
10
7.8791607050526755
20
28.095327506755957
30
0
10
7.3450953056482868
20
28.384099300723989
30
0
10
6.7550800851666484
20
28.594036127284021
30
0
10
6.1300271963354556
20
28.724969154201595
30
0
10
5.4934052886153601
20
28.775437735572709
30
0
10
4.8681438564619031
20
28.740231439786772
30
0
10
4.2743554894658935
20
28.61362060575399
30
0
10
3.7270488205834162
20
28.392603939809934
30
0
10
3.2338681637836491
20
28.080120396105578
30
0
10
2.7927667622286299
20
27.688344325702371
30
0
10
2.3898606743337529
20
27.241755970484604
30
0
10
2.0040831538839718
20
26.771778547101732
30
0
10
1.6116718686314138
20
26.31162214563096
30
0
10
1.1907145088844602
20
25.891055923588553
30
0
10
0.7256785987336225
20
25.531198073728451
30
0
10
0.21192368811053411
20
25.239332347278115
30
0
10
-0.34675394846518459
20
25.013488804245636
30
0
10
-0.94054503438472203
20
24.846980690257091
30
0
10
-1.5560624161723025
20
24.732957489661473
30
0
10
-2.1787711550382389
20
24.668950792491561
30
0
10
-2.7954204790168422
20
24.661423969430739
30
0
10
-3.3950954548507934
20
24.720721630100087
30
0
10
-3.9702679471269637
20
24.856023259932446
30
0
10
-4.5178503832980335
20
25.070288542112593
30
0
10
-5.0402431337065039
20
25.355221417237047
30
0
10
-5.5463998347429584
20
25.686183138602516
30
0
10
-6.0489583087237309
20
26.028437006562939
30
0
10
-6.5613620555298811
20
26.343423558527078
30
0
10
-7.094971595990792
20
26.59505725832431
30
0
10
-7.6562116374205944
20
26.755937938760653
30
0
10
-8.2436161167281909
20
26.813807770638633
30
0
10
-8.8490223394889327
20
26.768000508387082
30
0
10
-9.4588751456684363
20
26.625624294290091
30
0
10
-10.05549083530839
20
26.397843060979376
30
0
10
-10.618336639343653
20
26.096116144756294
30
0
10
-11.125306067552341
20
25.728456872246554
30
0
10
-11.556381644231493
20
25.300918832693313
30
0
10
-11.897314682023751
20
24.819091456788737
30
0
10
-12.143263293371209
20
24.289579978248952
30
0
10
-12.302531270804351
20
23.721519552624912
30
0
10
-12.400033547214427
20
23.127998044358637
30
0
10
-12.470481270816258
20
22.524060802574795
30
0
10
-12.551819317808752
20
21.924799046145736
30
0
10
-12.6785759177874
20
21.343409494976747
30
0
10
-12.875235177978857
20
20.789260412856116
30
0
10
-13.149638786614762
20
20.265970464517153
30
0
10
-13.497528084376002
20
19.773934851941462
30
0
10
-13.907035850309811
20
19.312831614713296
30
0
10
-14.363196425878433
20
18.884135373938513
30
0
10
-14.852447719293069
20
18.49362775220111
30
0
10
-15.367136833834982
20
18.153909991110449
30
0
10
-15.903674261543028
20
17.879585588494912
30
0
10
-16.46068973641373
20
17.68244683618785
30
0
10
-17.037185952670097
20
17.566652845869879
30
0
10
-17.630697042004805
20
17.523926790074615
30
0
10
-18.235434570504058
20
17.528700534796041
30
0
10
-18.843250073146191
20
17.54491918615032
30
0
10
-19.444606122323709
20
17.532876355243744
30
0
10
-20.029550482545542
20
17.45607299602085
30
0
10
-20.588674312747418
20
17.287985162015303
30
0
10
-21.114117199377649
20
17.019093524657656
30
0
10
-21.598652047364141
20
16.653250688293376
30
0
10
-22.034718482294743
20
16.203764875532251
30
0
10
-22.413475706769717
20
15.689588314142334
30
0
10
-22.723845841219092
20
15.131462064323278
30
0
10
-22.951564054102388
20
14.548079036353762
30
0
10
-23.08306339070322
20
13.95535409799878
30
0
10
-23.109378966822849
20
13.365692799555314
30
0
10
-23.030008586403635
20
12.787269539269408
30
0
10
-22.85687668221259
20
12.223279929839039
30
0
10
-22.618018863295216
20
11.671264153777541
30
0
10
-22.350770135565419
20
11.125112900642623
30
0
10
-22.095210689085739
20
10.577007162738896
30
0
10
-21.88752220442316
20
10.019381357035066
30
0
10
-21.753366889072907
20
9.4468794607942819
30
0
10
-21.70129798882293
20
8.8583061517725845
30
0
10
-21.727946553798525
20
8.2562963000890246
30
0
10
-21.823155177505967
20
7.6469949594430435
30
0
10
-21.97513118718912
20
7.0397337059145695
30
0
10
-22.175591206377998
20
6.446708570318469
30
0
10
-22.424909954236053
20
5.8826578600143762
30
0
10
-22.727962991513433
20
5.3618074536604956
30
0
10
-23.089972971390367
20
4.894818480154207
30
0
10
-23.512349492397647
20
4.4857289911010785
30
0
10
-23.988543343343185
20
4.1289092252120323
30
0
10
-24.499861806877465
20
3.8059793630696603
30
0
10
-25.01995721071097
20
3.4910134906086858
30
0
10
-25.519339265625032
20
3.1557647905543309
30
0
10
-25.969902744257674
20
2.7749088961987107
30
0
10
-26.349392497723922
20
2.3312192473965068
30
0
10
-26.646049387774426
20
1.8209373357666001
30
0
10
-26.855876470310616
20
1.2512114409129118
30
0
10
-26.979708521999282
20
0.63732459912418027
30
0
10
-27.020354538707938
20
1.3489857078607947e-07
30
0
10
-26.979708678853278
20
-0.63732430772990745
30
0
10
-26.855876752800235
20
-1.2512111017655905
30
0
10
-26.646049739082134
20
-1.8209369589885005
30
0
10
-26.34939284404885
20
-2.3312188840630697
30
0
10
-25.969903006842486
20
-2.7749086278989932
30
0
10
-25.519339377316669
20
-3.155764705103294
30
0
10
-25.019957132889484
20
-3.4910136404187586
30
0
10
-24.499861536592803
20
-3.8059797409549212
30
0
10
-23.988542915201229
20
-4.1289097612779342
30
0
10
-23.512348972320996
20
-4.4857295681995186
30
0
10
-23.08997244615659
20
-4.8948189716071928
30
0
10
-22.727962544949012
20
-5.3618077743564534
30
0
10
-22.424909646049102
20
-5.8826579908369094
30
0
10
-22.175591062214973
20
-6.4467085643643829
30
0
10
-21.975131196749167
20
-7.0397336733558324
30
0
10
-21.823155302002451
20
-7.6469950323755889
30
0
10
-21.727946742333756
20
-8.2562965767640897
30
0
10
-21.701298191115391
20
-8.8583066629919713
30
0
10
-21.753367065228055
20
-9.4468801581948529
30
0
10
-21.887522329936488
20
-10.019382123695838
30
0
10
-22.095210759442693
20
-10.577007845176002
30
0
10
-22.350770158643471
20
-11.125113364664962
30
0
10
-22.618018847769768
20
-11.671264321877484
30
0
10
-22.856876634450206
20
-12.223279797566997
30
0
10
-23.030008510557018
20
-12.787269171597295
30
0
10
-23.109378871908355
20
-13.365692306663233
30
0
10
-23.083063298865554
20
-13.955353591102735
30
0
10
-22.951563999813548
20
-14.548078598320362
30
0
10
-22.723845866804695
20
-15.13146173438556
30
0
10
-22.413475852633105
20
-15.689588087174426
30
0
10
-22.034718771788274
20
-16.203764715197373
30
0
10
-21.598652468366105
20
-16.653250555710166
30
0
10
-21.114117698617683
20
-17.019093397623617
30
0
10
-20.588674800527112
20
-17.287985043597789
30
0
10
-20.029550848499717
20
-17.45607291227693
30
0
10
-19.444606262483283
20
-17.532876343741965
30
0
10
-18.843249926685683
20
-17.544919270103524
30
0
10
-18.235434138826449
20
-17.528700706564742
30
0
10
-17.630696392010069
20
-17.523927009569885
30
0
10
-17.037185203150763
20
-17.566653050181298
30
0
10
-16.460689028859193
20
-17.682446965662663
30
0
10
-15.903673712487315
20
-17.879585616852221
30
0
10
-15.367136503843
20
-18.15390993454853
30
0
10
-14.852447601233937
20
-18.493627669252792
30
0
10
-14.363196451523415
20
-18.884135351716957
30
0
10
-13.907035915613168
20
-19.312831743374858
30
0
10
-13.497528093401051
20
-19.773935186623238
30
0
10
-13.149638680409019
20
-20.265971003947794
30
0
10
-12.875234949127529
20
-20.789261094782233
30
0
10
-12.678575608887865
20
-21.343410207790541
30
0
10
-12.551819008042603
20
-21.924799658287434
30
0
10
-12.470481039359916
20
-22.524061205414114
30
0
10
-12.400033443270381
20
-23.12799817738146
30
0
10
-12.3025313021347
20
-23.721519415529301
30
0
10
-12.143263428343449
20
-24.289579627937684
30
0
10
-11.897314868655291
20
-24.819090990826126
30
0
10
-11.556381841023331
20
-25.300918356613135
30
0
10
-11.125306258702368
20
-25.728456474398019
30
0
10
-10.618336839246664
20
-26.096115881027497
30
0
10
-10.055491080724554
20
-26.397842948901634
30
0
10
-9.4588754758882772
20
-26.625624315919779
30
0
10
-8.8490227653364091
20
-26.768000624461475
30
0
10
-8.2436166053937399
20
-26.813807933679634
30
0
10
-7.6562121117873865
20
-26.755938102854454
30
0
10
-7.0949719491264895
20
-26.595057385724129
30
0
10
-6.5613621796588015
20
-26.343423624628002
30
0
10
-6.0489581401258672
20
-26.02843699800793
30
0
10
-5.5463993787283616
20
-25.68618304972286
30
0
10
-5.0402424682284543
20
-25.355221250475775
30
0
10
-4.5178496423030712
20
-25.070288308769562
30
0
10
-3.9702672818944196
20
-24.856022986319346
30
0
10
-3.3950949776242472
20
-24.72072135711171
30
0
10
-2.7954202319895023
20
-24.661423743438743
30
0
10
-2.1787711005659256
20
-24.668950658882398
30
0
10
-1.5560624497601847
20
-24.73295748483228
30
0
10
-0.94054501976142857
20
-24.846980833800668
30
0
10
-0.34675377511418259
20
-25.013489090678579
30
0
10
0.21192406909566203
20
-25.239332743658231
30
0
10
0.72567915993348675
20
-25.531198523675581
30
0
10
1.1907151541236489
20
-25.891056356241933
30
0
10
1.6116724601711958
20
-26.311622493124581
30
0
10
2.0040835663870586
20
-26.771778760856026
30
0
10
2.3898608336928335
20
-27.241756026193308
30
0
10
2.7927666617512878
20
-27.6883442273082
30
0
10
3.2338678608451854
20
-28.080120174376447
30
0
10
3.7270484116617149
20
-28.392603648718385
30
0
10
4.2743550665275469
20
-28.613620311644592
30
0
10
4.8681434805649966
20
-28.740231208439976
30
0
10
5.4934049778648264
20
-28.77543762178632
30
0
10
6.1300269292845027
20
-28.724969192597737
30
0
10
6.7550798190609846
20
-28.594036324009792
30
0
10
7.3450950101556289
20
-28.384099628601781
30
0
10
7.8791603821062717
20
-28.095327908106896
30
0
10
8.3420296949101846
20
-27.729069862880166
30
0
10
8.7271962820933542
20
-27.290299050899755
30
0
10
9.0400539035129306
20
-26.790120038430643
30
0
10
9.3008209847034973
20
-26.248109887191283
30
0
10
9.5385638638060968
20
-25.688483764489689
30
0
10
9.7854386952395025
20
-25.136411895787493
30
0
10
10.070857127050841
20
-24.61428416751599
30
0
10
10.415672143178805
20
-24.137987333085871
30
0
10
10.826388292714849
20
-23.713202734758614
30
0
10
11.298808080700415
20
-23.33910976308028
30
0
10
11.821635698746139
20
-23.012056116792525
30
0
10
12.380096253865302
20
-22.729240371240028
30
0
10
12.959548142966202
20
-22.492389069872331
30
0
10
13.549098285401477
20
-22.311436945312465
30
0
10
14.141188292721587
20
-22.199384669861178
30
0
10
14.73118113179483
20
-22.167160816130689
30
0
10
15.316948137567469
20
-22.218475049048777
30
0
10
15.898455178489435
20
-22.344691095434918
30
0
10
16.477351668659374
20
-22.519645720075189
30
0
10
17.055977050583806
20
-22.706448817738544
30
0
10
17.636366811953049
20
-22.864315383408087
30
0
10
18.219254822309288
20
-22.955420970098782
30
0
10
18.80308602401692
20
-22.951665260693691
30
0
10
19.383000310280522
20
-22.841699991909383
30
0
10
19.950977930085916
20
-22.627185602572524
30
0
10
20.49601539772393
20
-22.318761235154689
30
0
10
21.004290570621528
20
-21.932120678577629
30
0
10
21.459330869247147
20
-21.484043835032413
30
0
10
21.842182886560341
20
-20.988447553124878
30
0
10
22.135345488450149
20
-20.45677978381066
30
0
10
22.326721884114459
20
-19.898417865686472
30
0
10
22.413527225845993
20
-19.321063591453534
30
0
10
22.406302614962883
20
-18.731142629974432
30
0
10
22.3326410320253
20
-18.134193347473687
30
0
10
22.230086344528999
20
-17.534872390184098
30
0
10
22.139298082250036
20
-16.936969369586276
30
0
10
22.097123784517471
20
-16.343418719297226
30
0
10
22.129695125090429
20
-15.756311252466126
30
0
10
22.245555644396198
20
-15.17690979360361
30
0
10
22.44073053000589
20
-14.606793339213207
30
0
10
22.703742560067795
20
-14.04899635303974
30
0
10
23.020647739143989
20
-13.509150036917113
30
0
10
23.380062206769079
20
-12.996622699886144
30
0
10
23.778193242331568
20
-12.525661214889494
30
0
10
24.215711018945921
20
-12.111288816739432
30
0
10
24.694623048538951
20
-11.765206175137774
30
0
10
25.215144180392933
20
-11.491684902025385
30
0
10
25.77257657942878
20
-11.283478154987678
30
0
10
26.354162908210807
20
-11.117684279383887
30
0
10
26.941926934364417
20
-10.962004545752768
30
0
10
27.515530980647945
20
-10.781027956808561
30
0
10
28.055142977468503
20
-10.542537803068599
30
0
10
28.544262548679484
20
-10.223735321115912
30
0
10
28.972665777930974
20
-9.8177013164826104
30
0
10
29.334503722354299
20
-9.3301684439418047
30
0
10
29.626271615405972
20
-8.7760358531925995
30
0
10
29.844826233686703
20
-8.1759788140686602
30
0
10
29.985381861508454
20
-7.5530192274321113
30
0
10
30.039517894646085
20
-6.9291116768145784
30
0
10
29.998700671763196
20
-6.3233486188533519
30
0
10
29.85782349686577
20
-5.750158791639385
30
0
10
29.618707510483461
20
-5.2175269578326446
30
0
10
29.293694430206443
20
-4.7251597844309927
30
0
10
28.908991215255906
20
-4.262798550020646
30
0
10
28.498699349823106
20
-3.8140629274828832
30
0
10
28.099072625627997
20
-3.3601587394482388
30
0
10
27.742695639887703
20
-2.8836333047800395
30
0
10
27.452682134421874
20
-2.3721176779636775
30
0
10
27.236902127225132
20
-1.8220552278997924
30
0
10
27.092865463372313
20
-1.2369232368157703
30
0
10
27.028619047980364
20
-0.74776825749299658
30
0
10
27.005203436751735
20
-0.3745859258065064
30
0
10
26.999999986176093
20
-0.12486197740194574
30
0
10
27
20
0
30
0
0
CIRCLE
5
103
100
AcDbEntity
8
0
100
AcDbCircle
10
2
20
0
30
0
40
7.5
210
0
220
0
230
1
0
CIRCLE
5
104
100
AcDbEntity
8
0
100
AcDbCircle
10
18.25
20
0
30
0
40
8
210
0
220
0
230
1
0
LINE
5
105
100
AcDbEntity
8
1
100
AcDbLine
10
2
20
0
30
0
11
18.25
21
0
31
0
0
CIRCLE
5
106
100
AcDbEntity
8
0
100
AcDbCircle
10
2.0000000000000013
20
16.25
30
0
40
8
210
0
220
0
230
1
0
LINE
5
107
100
AcDbEntity
8
1
100
AcDbLine
10
2
20
0
30
0
11
2.0000000000000013
21
16.25
31
0
0
CIRCLE
5
108
100
AcDbEntity
8
0
100
AcDbCircle
10
-14.25
20
1.9900510486144489e-15
30
0
40
8
210
0
220
0
230
1
0
LINE
5
109
100
AcDbEntity
8
1
100
AcDbLine
10
2
20
0
30
0
11
-14.25
21
1.9900510486144489e-15
31
0
0
CIRCLE
5
110
100
AcDbEntity
8
0
100
AcDbCircle
10
1.9999999999999971
20
-16.25
30
0
40
8
210
0
220
0
230
1
0
LINE
5
111
100
AcDbEntity
8
1
100
AcDbLine
10
2
20
0
30
0
11
1.9999999999999971
21
-16.25
31
0
0
ENDSEC
0
SECTION
2
OBJECTS
0
DICTIONARY
5
C
100
AcDbDictionary
3
ACAD_GROUP
350
D
3
ACAD_MLINESTYLE
350
17
0
DICTIONARY
5
D
100
AcDbDictionary
0
DICTIONARY
5
1A
330
C
100
AcDbDictionary
0
DICTIONARY
5
17
100
AcDbDictionary
0
ENDSEC
0
EOF
